<svg width="194" height="244" viewBox="0 0 194 244" fill="none" xmlns="http://www.w3.org/2000/svg">
<g clip-path="url(#clip0_3_84)">
<g filter="url(#filter0_dd_3_84)">
<path d="M59.0381 69.4062L59.103 175.883C59.1052 179.397 61.9558 182.244 65.4701 182.242L121.656 182.207C125.17 182.204 128.017 179.354 128.015 175.839L127.95 69.3628C127.948 65.8485 125.097 63.0014 121.583 63.0036L65.3973 63.039C61.8831 63.0412 59.0359 65.8919 59.0381 69.4062Z" fill="white"/>
<path d="M60.0456 69.4054L60.1106 175.882C60.1124 178.84 62.5117 181.236 65.4695 181.234L121.655 181.199C124.613 181.197 127.009 178.798 127.008 175.84L126.943 69.3633C126.941 66.4054 124.542 64.0091 121.584 64.011L65.398 64.0464C62.4402 64.0482 60.0438 66.4476 60.0456 69.4054Z" stroke="#404366" stroke-width="2.015"/>
</g>
<path d="M110.181 112.845H75.7583C75.1726 112.845 74.6978 113.32 74.6978 113.906C74.6978 114.491 75.1726 114.966 75.7583 114.966H110.181C110.767 114.966 111.242 114.491 111.242 113.906C111.242 113.32 110.767 112.845 110.181 112.845Z" fill="#404366"/>
<path d="M110.181 123.45H75.7583C75.1726 123.45 74.6978 123.925 74.6978 124.511C74.6978 125.096 75.1726 125.571 75.7583 125.571H110.181C110.767 125.571 111.242 125.096 111.242 124.511C111.242 123.925 110.767 123.45 110.181 123.45Z" fill="#404366"/>
<path d="M110.181 134.055H75.7583C75.1726 134.055 74.6978 134.53 74.6978 135.116C74.6978 135.701 75.1726 136.176 75.7583 136.176H110.181C110.767 136.176 111.242 135.701 111.242 135.116C111.242 134.53 110.767 134.055 110.181 134.055Z" fill="#404366"/>
<path d="M68.4331 63H75.0275V64.3257H111.956V63H118.55V64.3257H111.956V68.3026C111.956 68.3026 111.452 69.7688 110.637 70.4237C109.823 71.0785 107.999 71.4842 107.999 71.4842H78.9841C78.9841 71.4842 77.1607 71.0785 76.3464 70.4237C75.532 69.7688 75.0275 68.3026 75.0275 68.3026V64.3257H68.4331V63Z" fill="#404366"/>
<path d="M104.346 149.963H82.6331C78.826 149.963 75.7397 153.049 75.7397 156.856C75.7397 160.664 78.826 163.75 82.6331 163.75H104.346C108.153 163.75 111.239 160.664 111.239 156.856C111.239 153.049 108.153 149.963 104.346 149.963Z" fill="#F26A7E"/>
<path d="M92.9698 83.1499H92.9698C87.4917 83.1499 83.0508 87.5908 83.0508 93.0689V93.3809C83.0508 98.859 87.4917 103.3 92.9698 103.3H92.9698C98.448 103.3 102.889 98.859 102.889 93.3809V93.0689C102.889 87.5908 98.448 83.1499 92.9698 83.1499Z" fill="#404366"/>
</g>
<defs>
<filter id="filter0_dd_3_84" x="19.0381" y="0.00350952" width="192.977" height="243.238" filterUnits="userSpaceOnUse" color-interpolation-filters="sRGB">
<feFlood flood-opacity="0" result="BackgroundImageFix"/>
<feColorMatrix in="SourceAlpha" type="matrix" values="0 0 0 0 0 0 0 0 0 0 0 0 0 0 0 0 0 0 127 0" result="hardAlpha"/>
<feOffset dx="22" dy="-1"/>
<feGaussianBlur stdDeviation="31"/>
<feColorMatrix type="matrix" values="0 0 0 0 0 0 0 0 0 0 0 0 0 0 0 0 0 0 0.07 0"/>
<feBlend mode="normal" in2="BackgroundImageFix" result="effect1_dropShadow_3_84"/>
<feColorMatrix in="SourceAlpha" type="matrix" values="0 0 0 0 0 0 0 0 0 0 0 0 0 0 0 0 0 0 127 0" result="hardAlpha"/>
<feOffset dx="-6" dy="4"/>
<feGaussianBlur stdDeviation="7.5"/>
<feColorMatrix type="matrix" values="0 0 0 0 0 0 0 0 0 0 0 0 0 0 0 0 0 0 0.02 0"/>
<feBlend mode="normal" in2="effect1_dropShadow_3_84" result="effect2_dropShadow_3_84"/>
<feBlend mode="normal" in="SourceGraphic" in2="effect2_dropShadow_3_84" result="shape"/>
</filter>
<clipPath id="clip0_3_84">
<rect width="194" height="244" fill="white"/>
</clipPath>
</defs>
</svg>
