<svg width="194" height="244" viewBox="0 0 194 244" fill="none" xmlns="http://www.w3.org/2000/svg">
<g clip-path="url(#clip0_3_84)">
<path d="M128.121 62.7609H52.5454C47.1581 62.7609 42.7909 67.1281 42.7909 72.5154V174.454C42.7909 179.842 47.1581 184.209 52.5454 184.209H128.121C133.508 184.209 137.876 179.842 137.876 174.454V72.5154C137.876 67.1281 133.508 62.7609 128.121 62.7609Z" stroke="#404366" stroke-width="1.58182"/>
<g filter="url(#filter0_dd_3_84)">
<path d="M43.759 74.2728C43.759 68.4488 48.4804 63.7274 54.3045 63.7274H126.365C132.189 63.7274 136.91 68.4488 136.91 74.2729V172.697C136.91 178.521 132.189 183.242 126.365 183.242H54.3045C48.4804 183.242 43.759 178.521 43.759 172.697V74.2728Z" fill="white"/>
</g>
<path d="M62.0609 62.3222L62.0591 59.3928C62.0573 56.3878 64.492 53.9503 67.4971 53.9487L71.378 53.9467C75.1665 53.9447 78.2367 50.873 78.2367 47.0844V46.1762C78.2367 43.1713 80.6726 40.7354 83.6775 40.7354H95.1017C98.1065 40.7354 100.543 43.1713 100.543 46.1762V47.0763C100.543 50.872 103.624 53.9468 107.42 53.9385L111.101 53.9306C114.109 53.9241 116.551 56.3598 116.553 59.3679L116.555 62.2884C116.557 65.2933 114.123 67.7307 111.118 67.7325L67.5051 67.7596C64.5002 67.7614 62.0628 65.327 62.0609 62.3222Z" fill="#404366" stroke="#404366" stroke-width="1.4215"/>
<path d="M84.1832 97.1217H65.7287C65.2434 97.1217 64.8499 97.5151 64.8499 98.0005C64.8499 98.4858 65.2434 98.8793 65.7287 98.8793H84.1832C84.6686 98.8793 85.062 98.4858 85.062 98.0005C85.062 97.5151 84.6686 97.1217 84.1832 97.1217Z" fill="#404366"/>
<path d="M88.5771 104.152H65.7287C65.2434 104.152 64.8499 104.545 64.8499 105.03C64.8499 105.516 65.2434 105.909 65.7287 105.909H88.5771C89.0625 105.909 89.4559 105.516 89.4559 105.03C89.4559 104.545 89.0625 104.152 88.5771 104.152Z" fill="#404366"/>
<path d="M62.2136 118.212C62.2136 117.727 62.6071 117.334 63.0924 117.334H117.577C118.063 117.334 118.456 117.727 118.456 118.212C118.456 118.698 118.063 119.091 117.577 119.091H63.0924C62.6071 119.091 62.2136 118.698 62.2136 118.212Z" fill="#404366"/>
<path d="M63.0908 154.242C63.0908 153.757 63.4843 153.364 63.9696 153.364H118.454C118.94 153.364 119.333 153.757 119.333 154.242C119.333 154.728 118.94 155.121 118.454 155.121H63.9696C63.4843 155.121 63.0908 154.728 63.0908 154.242Z" fill="#404366"/>
<path d="M62.2136 135.788C62.2136 135.303 62.6071 134.909 63.0924 134.909H117.577C118.063 134.909 118.456 135.303 118.456 135.788C118.456 136.273 118.063 136.667 117.577 136.667H63.0924C62.6071 136.667 62.2136 136.273 62.2136 135.788Z" fill="#404366"/>
<path d="M62.2136 127C62.2136 126.515 62.6071 126.122 63.0924 126.122H117.577C118.063 126.122 118.456 126.515 118.456 127C118.456 127.486 118.063 127.879 117.577 127.879H63.0924C62.6071 127.879 62.2136 127.486 62.2136 127Z" fill="#404366"/>
<path d="M62.2136 144.576C62.2136 144.091 62.6071 143.697 63.0924 143.697H92.0924C92.5777 143.697 92.9712 144.091 92.9712 144.576C92.9712 145.061 92.5777 145.455 92.0924 145.455H63.0924C62.6071 145.455 62.2136 145.061 62.2136 144.576Z" fill="#404366"/>
<path d="M94.7271 144.576C94.7271 144.091 95.1205 143.697 95.6058 143.697H117.576C118.061 143.697 118.454 144.091 118.454 144.576C118.454 145.061 118.061 145.455 117.576 145.455H95.6058C95.1205 145.455 94.7271 145.061 94.7271 144.576Z" fill="#404366"/>
<path d="M107.473 109.688C113.685 109.688 118.721 104.652 118.721 98.4398C118.721 92.2274 113.685 87.1913 107.473 87.1913C101.26 87.1913 96.224 92.2274 96.224 98.4398C96.224 104.652 101.26 109.688 107.473 109.688Z" fill="#F26A7E" stroke="#404366" stroke-width="1.2303"/>
<path d="M52.5067 79.4328L52.5627 169.782C52.5638 171.659 54.0868 173.18 55.9642 173.179L124.139 173.137C126.017 173.135 127.538 171.613 127.536 169.735L127.48 79.3864C127.479 77.5089 125.956 75.9879 124.079 75.9891L55.904 76.0313C54.0266 76.0325 52.5055 77.5554 52.5067 79.4328Z" stroke="#404366" stroke-width="1.66969"/>
<path fill-rule="evenodd" clip-rule="evenodd" d="M100.933 128.348C99.7581 127.174 98.1647 126.514 96.5033 126.514C94.8418 126.514 93.2484 127.174 92.0734 128.348L69.2371 151.186C68.1 152.368 67.472 153.95 67.4881 155.59C67.5042 157.231 68.163 158.799 69.3231 159.959C70.4831 161.12 72.0519 161.778 73.6924 161.794C75.3329 161.811 76.9143 161.183 78.0968 160.045L100.933 137.209C101.515 136.627 101.977 135.937 102.291 135.176C102.606 134.416 102.768 133.602 102.768 132.779C102.768 131.956 102.606 131.141 102.291 130.381C101.977 129.621 101.515 128.93 100.933 128.348Z" fill="#F26A7E"/>
<path fill-rule="evenodd" clip-rule="evenodd" d="M112.238 117.038C111.65 116.45 110.852 116.12 110.021 116.12C109.189 116.12 108.392 116.45 107.804 117.038L96.4016 128.442C95.8329 129.034 95.519 129.825 95.5273 130.645C95.5355 131.466 95.8651 132.251 96.4455 132.831C97.0258 133.412 97.8106 133.741 98.6313 133.75C99.452 133.758 100.243 133.444 100.835 132.875L112.238 121.472C112.529 121.181 112.76 120.835 112.918 120.455C113.075 120.074 113.156 119.667 113.156 119.255C113.156 118.843 113.075 118.435 112.918 118.055C112.76 117.675 112.529 117.329 112.238 117.038Z" fill="#BDC2C7"/>
<path d="M164.123 98.3308C164.123 100.784 163.148 103.137 161.413 104.872C159.678 106.607 157.325 107.582 154.872 107.582H69.3736C66.9442 107.545 64.6266 106.555 62.9214 104.824C61.2163 103.093 60.2605 100.761 60.2605 98.3308C60.2605 95.901 61.2163 93.5688 62.9214 91.8379C64.6266 90.107 66.9442 89.1164 69.3736 89.08H154.871C157.325 89.08 159.678 90.0546 161.413 91.7894C163.148 93.5242 164.123 95.8772 164.123 98.3308Z" fill="#E1E2EC"/>
<path d="M69.4825 102.6C71.78 102.6 73.6425 100.738 73.6425 98.44C73.6425 96.1425 71.78 94.28 69.4825 94.28C67.185 94.28 65.3225 96.1425 65.3225 98.44C65.3225 100.738 67.185 102.6 69.4825 102.6Z" fill="#D4D7DA"/>
<path d="M130.843 128.6C113.639 128.6 99.6426 114.604 99.6426 97.4C99.6426 80.1963 113.639 66.2 130.843 66.2C148.046 66.2 162.043 80.1963 162.043 97.4C162.043 114.604 148.046 128.6 130.843 128.6Z" fill="white"/>
<path d="M130.842 68.28C146.899 68.28 159.962 81.3434 159.962 97.4C159.962 113.457 146.899 126.52 130.842 126.52C114.786 126.52 101.723 113.457 101.723 97.4C101.723 81.3434 114.786 68.28 130.842 68.28ZM130.842 64.12C112.463 64.12 97.5625 79.0201 97.5625 97.4C97.5625 115.78 112.463 130.68 130.842 130.68C149.222 130.68 164.122 115.78 164.122 97.4C164.122 79.0201 149.222 64.12 130.842 64.12Z" fill="#404366"/>
<path d="M130.843 74.52C143.479 74.52 153.723 84.764 153.723 97.4" stroke="white" stroke-miterlimit="10" stroke-linecap="round" stroke-linejoin="round"/>
</g>
<defs>
<filter id="filter0_dd_3_84" x="8.6075" y="8.36382" width="202.121" height="228.484" filterUnits="userSpaceOnUse" color-interpolation-filters="sRGB">
<feFlood flood-opacity="0" result="BackgroundImageFix"/>
<feColorMatrix in="SourceAlpha" type="matrix" values="0 0 0 0 0 0 0 0 0 0 0 0 0 0 0 0 0 0 127 0" result="hardAlpha"/>
<feOffset dx="19.3333" dy="-0.878787"/>
<feGaussianBlur stdDeviation="27.2424"/>
<feColorMatrix type="matrix" values="0 0 0 0 0 0 0 0 0 0 0 0 0 0 0 0 0 0 0.07 0"/>
<feBlend mode="normal" in2="BackgroundImageFix" result="effect1_dropShadow_3_84"/>
<feColorMatrix in="SourceAlpha" type="matrix" values="0 0 0 0 0 0 0 0 0 0 0 0 0 0 0 0 0 0 127 0" result="hardAlpha"/>
<feOffset dx="-5.27272" dy="3.51515"/>
<feGaussianBlur stdDeviation="6.5909"/>
<feColorMatrix type="matrix" values="0 0 0 0 0 0 0 0 0 0 0 0 0 0 0 0 0 0 0.02 0"/>
<feBlend mode="normal" in2="effect1_dropShadow_3_84" result="effect2_dropShadow_3_84"/>
<feBlend mode="normal" in="SourceGraphic" in2="effect2_dropShadow_3_84" result="shape"/>
</filter>
<clipPath id="clip0_3_84">
<rect width="194" height="244" fill="white"/>
</clipPath>
</defs>
</svg>
