<svg width="194" height="244" viewBox="0 0 194 244" fill="none" xmlns="http://www.w3.org/2000/svg">
<g clip-path="url(#clip0_3_84)">
<g filter="url(#filter0_dd_3_84)">
<path d="M124.536 69.0809H49.8932C47.017 69.0809 44.6855 71.4125 44.6855 74.2886V175.792C44.6855 178.668 47.017 181 49.8932 181H124.536C127.413 181 129.744 178.668 129.744 175.792V74.2886C129.744 71.4125 127.413 69.0809 124.536 69.0809Z" fill="white"/>
<path d="M124.536 69.9489H49.8932C47.4965 69.9489 45.5535 71.8919 45.5535 74.2886V175.792C45.5535 178.189 47.4965 180.132 49.8932 180.132H124.536C126.933 180.132 128.876 178.189 128.876 175.792V74.2886C128.876 71.8919 126.933 69.9489 124.536 69.9489Z" stroke="#404366" stroke-width="1.73589"/>
</g>
<path d="M58.1163 77.6689C59.3525 77.6689 60.3547 76.6667 60.3547 75.4305C60.3547 74.1943 59.3525 73.1921 58.1163 73.1921C56.8801 73.1921 55.8779 74.1943 55.8779 75.4305C55.8779 76.6667 56.8801 77.6689 58.1163 77.6689Z" fill="#404366"/>
<path d="M76.0235 77.6689C77.2597 77.6689 78.2619 76.6667 78.2619 75.4305C78.2619 74.1943 77.2597 73.1921 76.0235 73.1921C74.7873 73.1921 73.7851 74.1943 73.7851 75.4305C73.7851 76.6667 74.7873 77.6689 76.0235 77.6689Z" fill="#404366"/>
<path d="M96.1676 77.6689C97.4038 77.6689 98.406 76.6667 98.406 75.4305C98.406 74.1943 97.4038 73.1921 96.1676 73.1921C94.9314 73.1921 93.9292 74.1943 93.9292 75.4305C93.9292 76.6667 94.9314 77.6689 96.1676 77.6689Z" fill="#404366"/>
<path d="M116.314 77.6689C117.55 77.6689 118.552 76.6667 118.552 75.4305C118.552 74.1943 117.55 73.1921 116.314 73.1921C115.078 73.1921 114.076 74.1943 114.076 75.4305C114.076 76.6667 115.078 77.6689 116.314 77.6689Z" fill="#404366"/>
<path d="M57.8224 75.5382C57.8928 74.5971 58.301 73.9854 58.7541 73.5442C59.3748 72.9423 60.0339 71.5679 60.0339 69.8641C60.0339 67.6996 59.1751 65.7566 58.1142 65.7566C57.0532 65.7566 56.1945 67.531 56.1945 69.4916H53.64C53.6656 65.5703 55.6557 62 58.1142 62C60.5893 62 62.5935 65.5664 62.5935 69.8524C62.5935 73.4854 61.2561 76.4617 59.3057 77.5498C58.3343 78.091 57.7405 76.6734 57.8224 75.5382Z" fill="#404366"/>
<path d="M75.7296 75.5382C75.8 74.5971 76.2083 73.9854 76.6613 73.5442C77.282 72.9423 77.9411 71.5679 77.9411 69.8641C77.9411 67.6996 77.0824 65.7566 76.0214 65.7566C74.9604 65.7566 74.1017 67.531 74.1017 69.4916H71.5472C71.5728 65.5703 73.5629 62 76.0214 62C78.4966 62 80.5007 65.5664 80.5007 69.8524C80.5007 73.4854 79.1633 76.4617 77.2129 77.5498C76.2415 78.091 75.6477 76.6734 75.7296 75.5382Z" fill="#404366"/>
<path d="M95.8737 75.5382C95.944 74.5971 96.3523 73.9854 96.8054 73.5442C97.4261 72.9423 98.0852 71.5679 98.0852 69.8641C98.0852 67.6996 97.2264 65.7566 96.1654 65.7566C95.1045 65.7566 94.2457 67.531 94.2457 69.4916H91.6912C91.7168 65.5703 93.7069 62 96.1654 62C98.6406 62 100.645 65.5664 100.645 69.8524C100.645 73.4854 99.3074 76.4617 97.3569 77.5498C96.3856 78.091 95.7917 76.6734 95.8737 75.5382Z" fill="#404366"/>
<path d="M116.02 75.5382C116.091 74.5971 116.499 73.9854 116.952 73.5442C117.573 72.9423 118.232 71.5679 118.232 69.8641C118.232 67.6996 117.373 65.7566 116.312 65.7566C115.251 65.7566 114.392 67.531 114.392 69.4916H111.838C111.864 65.5703 113.854 62 116.312 62C118.787 62 120.792 65.5664 120.792 69.8524C120.792 73.4854 119.454 76.4617 117.504 77.5498C116.532 78.091 115.938 76.6734 116.02 75.5382Z" fill="#404366"/>
<g filter="url(#filter1_dd_3_84)">
<path d="M96.6885 91.8541L96.7109 127.973C96.7126 130.634 98.8711 132.789 101.532 132.788L149.674 132.758C152.335 132.756 154.491 130.598 154.489 127.937L154.467 91.8183C154.465 89.1572 152.307 87.0013 149.646 87.003L101.504 87.0328C98.8428 87.0345 96.6869 89.193 96.6885 91.8541Z" fill="white"/>
<path d="M97.6385 91.8535L97.6609 127.972C97.6622 130.108 99.3952 131.839 101.532 131.838L149.674 131.808C151.81 131.807 153.541 130.074 153.539 127.937L153.517 91.8189C153.516 89.6825 151.783 87.9517 149.646 87.953L101.504 87.9828C99.368 87.9841 97.6372 89.7171 97.6385 91.8535Z" stroke="#404366" stroke-width="1.9"/>
</g>
<path d="M97.8223 88.6831L117.899 105.318C122.412 109.058 128.966 108.99 133.401 105.158L153.083 88.1517" stroke="#404366" stroke-width="2"/>
<path d="M126.422 116.089L126.274 116.221L125.573 116.84L124.872 116.221C124.823 116.177 124.773 116.133 124.724 116.089C122.347 113.955 120.452 112.253 119.13 110.665C117.793 109.058 117.154 107.693 117.154 106.266C117.154 103.961 118.951 102.17 121.334 102.17C122.685 102.17 123.965 102.779 124.815 103.768L125.573 104.649L126.331 103.768C127.182 102.779 128.461 102.17 129.812 102.17C132.195 102.17 133.993 103.961 133.993 106.266C133.993 107.693 133.353 109.058 132.016 110.665C130.695 112.253 128.799 113.955 126.422 116.089Z" fill="#404366" stroke="#404366" stroke-width="2"/>
<path d="M127.312 126.675H100.744C100.451 126.675 100.213 126.912 100.213 127.206C100.213 127.499 100.451 127.737 100.744 127.737H127.312C127.605 127.737 127.843 127.499 127.843 127.206C127.843 126.912 127.605 126.675 127.312 126.675Z" fill="#404366"/>
<path d="M118.279 122.424H100.744C100.451 122.424 100.213 122.662 100.213 122.955C100.213 123.249 100.451 123.486 100.744 123.486H118.279C118.572 123.486 118.81 123.249 118.81 122.955C118.81 122.662 118.572 122.424 118.279 122.424Z" fill="#404366"/>
<path d="M98.312 130.597L98.4518 130.054C98.6621 129.239 99.0039 128.466 99.3862 127.707C99.5696 127.343 99.7645 126.977 99.96 126.61L99.9851 126.563C100.19 126.179 100.395 125.793 100.594 125.396C101.386 123.813 102.061 122.081 102.061 119.868C102.061 115.972 100.795 113.9 99.2961 112.783C97.7736 111.648 95.9265 111.434 94.6559 111.434C94.2623 111.434 93.8932 111.622 93.5341 111.999C93.1711 112.381 92.8474 112.928 92.5626 113.567C91.9987 114.834 91.6343 116.35 91.3905 117.364L91.3834 117.394V117.394L91.368 117.458C90.813 119.769 90.2025 122.31 88.5038 124.012C86.8661 125.653 85.5939 127.508 84.2348 129.489C84.1551 129.605 84.075 129.722 83.9946 129.839C82.5489 131.944 80.9871 134.168 78.7987 136.33L98.312 130.597ZM98.312 130.597L78.4936 136.021L98.312 130.597ZM98.312 130.597H98.8721H98.312ZM98.312 130.597H98.8721H98.312ZM78.7987 136.33L78.4936 136.021L78.7987 136.33ZM78.7987 136.33L78.4936 136.021L78.7987 136.33ZM78.7987 136.33C78.6334 136.493 78.5402 136.717 78.5402 136.949V160.224C78.5402 160.7 78.9215 161.088 79.3972 161.097C80.3258 161.114 81.3746 161.378 82.3899 161.722C83.4104 162.069 84.4279 162.508 85.2982 162.895C88.7598 164.435 92.9851 166.31 98.1396 166.312H98.4492V166.746H98.1394C92.882 166.744 88.5792 164.83 85.1218 163.292C83.3844 162.519 81.1127 161.562 79.3892 161.531C78.6771 161.517 78.1063 160.936 78.1063 160.224V136.949C78.1063 136.601 78.2458 136.266 78.4936 136.021L78.7987 136.33ZM98.8721 130.597H109.948H98.8721ZM98.8721 130.597H109.948H98.8721ZM109.948 130.597C113.342 130.597 115.982 133.421 115.998 136.491L109.948 130.597ZM109.948 130.597L115.998 136.491L109.948 130.597ZM115.998 136.491C116.006 138.336 115.216 140.325 114.008 141.538L115.998 136.491ZM105.478 165.898C103.286 166.3 100.785 166.312 98.4493 166.312L114.008 141.539L113.996 141.55L113.79 141.757L113.903 142.026C114.921 144.44 114.75 147.835 112.942 150.249L112.806 150.432L112.878 150.647C113.77 153.307 112.863 156.603 111.193 158.349L111.028 158.521L111.085 158.752C111.53 160.578 111.307 162.073 110.481 163.261C109.468 164.716 107.676 165.495 105.478 165.898ZM63.2987 135.823H72.009C73.2125 135.823 74.1881 136.799 74.1881 138.002V164.133C74.1881 165.337 73.2125 166.312 72.009 166.312H63.2987C62.0951 166.312 61.1195 165.337 61.1195 164.133V138.002C61.1195 136.799 62.0951 135.823 63.2987 135.823ZM64.6068 159.778C64.6068 161.461 65.971 162.825 67.6538 162.825C69.3367 162.825 70.7009 161.461 70.7009 159.778C70.7009 158.095 69.3367 156.731 67.6538 156.731C65.971 156.731 64.6068 158.095 64.6068 159.778Z" fill="#F26A7E" stroke="black" stroke-width="0.867945"/>
</g>
<defs>
<filter id="filter0_dd_3_84" x="9.96769" y="14.4004" width="192.684" height="219.544" filterUnits="userSpaceOnUse" color-interpolation-filters="sRGB">
<feFlood flood-opacity="0" result="BackgroundImageFix"/>
<feColorMatrix in="SourceAlpha" type="matrix" values="0 0 0 0 0 0 0 0 0 0 0 0 0 0 0 0 0 0 127 0" result="hardAlpha"/>
<feOffset dx="19.0948" dy="-0.867945"/>
<feGaussianBlur stdDeviation="26.9063"/>
<feColorMatrix type="matrix" values="0 0 0 0 0 0 0 0 0 0 0 0 0 0 0 0 0 0 0.07 0"/>
<feBlend mode="normal" in2="BackgroundImageFix" result="effect1_dropShadow_3_84"/>
<feColorMatrix in="SourceAlpha" type="matrix" values="0 0 0 0 0 0 0 0 0 0 0 0 0 0 0 0 0 0 127 0" result="hardAlpha"/>
<feOffset dx="-5.20767" dy="3.47178"/>
<feGaussianBlur stdDeviation="6.50959"/>
<feColorMatrix type="matrix" values="0 0 0 0 0 0 0 0 0 0 0 0 0 0 0 0 0 0 0.02 0"/>
<feBlend mode="normal" in2="effect1_dropShadow_3_84" result="effect2_dropShadow_3_84"/>
<feBlend mode="normal" in="SourceGraphic" in2="effect2_dropShadow_3_84" result="shape"/>
</filter>
<filter id="filter1_dd_3_84" x="56.6885" y="24.003" width="181.801" height="169.785" filterUnits="userSpaceOnUse" color-interpolation-filters="sRGB">
<feFlood flood-opacity="0" result="BackgroundImageFix"/>
<feColorMatrix in="SourceAlpha" type="matrix" values="0 0 0 0 0 0 0 0 0 0 0 0 0 0 0 0 0 0 127 0" result="hardAlpha"/>
<feOffset dx="22" dy="-1"/>
<feGaussianBlur stdDeviation="31"/>
<feColorMatrix type="matrix" values="0 0 0 0 0 0 0 0 0 0 0 0 0 0 0 0 0 0 0.07 0"/>
<feBlend mode="normal" in2="BackgroundImageFix" result="effect1_dropShadow_3_84"/>
<feColorMatrix in="SourceAlpha" type="matrix" values="0 0 0 0 0 0 0 0 0 0 0 0 0 0 0 0 0 0 127 0" result="hardAlpha"/>
<feOffset dx="-6" dy="4"/>
<feGaussianBlur stdDeviation="7.5"/>
<feColorMatrix type="matrix" values="0 0 0 0 0 0 0 0 0 0 0 0 0 0 0 0 0 0 0.02 0"/>
<feBlend mode="normal" in2="effect1_dropShadow_3_84" result="effect2_dropShadow_3_84"/>
<feBlend mode="normal" in="SourceGraphic" in2="effect2_dropShadow_3_84" result="shape"/>
</filter>
<clipPath id="clip0_3_84">
<rect width="176" height="161" fill="white" transform="translate(9 42)"/>
</clipPath>
</defs>
</svg>
