<svg width="38" height="39" viewBox="0 0 38 39" fill="none" xmlns="http://www.w3.org/2000/svg">
<path fill-rule="evenodd" clip-rule="evenodd" d="M19 38.2772C29.4934 38.2772 38 29.8166 38 19.38C38 8.94345 29.4934 0.48291 19 0.48291C8.50659 0.48291 0 8.94345 0 19.38C0 29.8166 8.50659 38.2772 19 38.2772ZM23.4841 13.6017C23.6078 13.5507 23.7407 13.5244 23.8749 13.5244C24.0091 13.5244 24.1419 13.5507 24.2657 13.6017C24.3895 13.6527 24.5017 13.7273 24.596 13.8212C24.6903 13.915 24.7649 14.0261 24.8157 14.1481C24.8665 14.2702 24.8926 14.4008 24.8926 14.5326C24.8926 14.6645 24.8665 14.7951 24.8157 14.9171C24.7649 15.0391 24.6903 15.1503 24.596 15.2441L16.2993 23.4958L14.3203 24.0327L14.8579 22.0722L23.1538 13.8212C23.2481 13.7273 23.3603 13.6527 23.4841 13.6017ZM23.8749 12.0244C23.5448 12.0244 23.2179 12.0891 22.9127 12.2148C22.6075 12.3405 22.33 12.5249 22.096 12.7576L13.6585 21.1494C13.5657 21.2417 13.4987 21.3567 13.4641 21.4829L12.5266 24.9018C12.4554 25.1613 12.5288 25.4391 12.7188 25.6297C12.9089 25.8203 13.1865 25.8944 13.4462 25.8239L16.8837 24.8915C17.0094 24.8574 17.124 24.7912 17.2163 24.6994L25.6538 16.3076C25.8878 16.0749 26.0736 15.7984 26.2004 15.4938C26.3273 15.1892 26.3926 14.8626 26.3926 14.5326C26.3926 14.2027 26.3273 13.8761 26.2004 13.5715C26.0736 13.2668 25.8878 12.9903 25.6538 12.7576C25.4198 12.5249 25.1422 12.3405 24.8371 12.2148C24.5319 12.0891 24.205 12.0244 23.8749 12.0244Z" fill="#404366"/>
</svg>
