<svg width="38" height="38" viewBox="0 0 38 38" fill="none" xmlns="http://www.w3.org/2000/svg">
<g clip-path="url(#clip0_1_5966)">
<path d="M28.3242 15.7364H37.7661L33.0451 9.44183L28.3242 15.7364ZM28.3242 22.031H37.7661L33.0451 28.3256L28.3242 22.031Z" fill="#F26A7E"/>
<path d="M1.57218 0H11.014V37.7674H1.57218C1.15482 37.7674 0.754559 37.6016 0.459443 37.3065C0.164328 37.0114 -0.00146484 36.6112 -0.00146484 36.1938V1.57364C-0.00146484 1.15629 0.164328 0.756024 0.459443 0.460908C0.754559 0.165793 1.15482 0 1.57218 0Z" fill="#A9ACCB"/>
<path d="M14.1614 0H23.6032C24.0206 0 24.4209 0.165793 24.716 0.460908C25.0111 0.756024 25.1769 1.15629 25.1769 1.57364V36.1938C25.1769 36.6112 25.0111 37.0114 24.716 37.3065C24.4209 37.6016 24.0206 37.7674 23.6032 37.7674H14.1614V0Z" fill="#404366"/>
</g>
<defs>
<clipPath id="clip0_1_5966">
<rect width="37.7674" height="37.7674" fill="white"/>
</clipPath>
</defs>
</svg>
