<svg width="32" height="39" viewBox="0 0 32 39" fill="none" xmlns="http://www.w3.org/2000/svg">
<path d="M29.9723 38.2092H15.8095C15.3921 38.2092 14.9919 38.0435 14.6967 37.7483C14.4016 37.4532 14.2358 37.053 14.2358 36.6356V33.4883C14.2358 33.071 14.4016 32.6707 14.6967 32.3756C14.9919 32.0805 15.3921 31.9147 15.8095 31.9147H29.9723C30.3896 31.9147 30.7899 32.0805 31.085 32.3756C31.3801 32.6707 31.5459 33.071 31.5459 33.4883V36.6356C31.5459 37.053 31.3801 37.4532 31.085 37.7483C30.7899 38.0435 30.3896 38.2092 29.9723 38.2092Z" fill="#F26A7E"/>
<path d="M29.9722 0.441833H1.64664C1.22929 0.441833 0.829022 0.607626 0.533906 0.902742C0.238791 1.19786 0.072998 1.59812 0.072998 2.01548V5.16276C0.072998 5.58012 0.238791 5.98038 0.533906 6.2755C0.829022 6.57061 1.22929 6.73641 1.64664 6.73641H29.9722C30.3896 6.73641 30.7898 6.57061 31.085 6.2755C31.3801 5.98038 31.5459 5.58012 31.5459 5.16276V2.01548C31.5459 1.59812 31.3801 1.19786 31.085 0.902742C30.7898 0.607626 30.3896 0.441833 29.9722 0.441833Z" fill="#A9ACCB"/>
<path d="M29.9722 9.88367H1.64664C1.22929 9.88367 0.829022 10.0495 0.533906 10.3446C0.238791 10.6397 0.072998 11.04 0.072998 11.4573V27.1937C0.072998 27.6111 0.238791 28.0114 0.533906 28.3065C0.829022 28.6016 1.22929 28.7674 1.64664 28.7674H29.9722C30.3896 28.7674 30.7898 28.6016 31.085 28.3065C31.3801 28.0114 31.5459 27.6111 31.5459 27.1937V11.4573C31.5459 11.04 31.3801 10.6397 31.085 10.3446C30.7898 10.0495 30.3896 9.88367 29.9722 9.88367Z" fill="#404366"/>
</svg>
