<svg width="35" height="35" viewBox="0 0 35 35" fill="none" xmlns="http://www.w3.org/2000/svg">
<path d="M6.30727 0.119934H1.58634C1.16898 0.119934 0.768719 0.285727 0.473604 0.580842C0.178488 0.875958 0.0126953 1.27622 0.0126953 1.69358V33.1664C0.0126953 33.5838 0.178488 33.9841 0.473604 34.2792C0.768719 34.5743 1.16898 34.7401 1.58634 34.7401H6.30727V0.119934Z" fill="#A9ACCB"/>
<path d="M9.45508 34.7401H25.1915V0.119934H9.45508V34.7401ZM17.3233 28.4455C16.9059 28.4455 16.5057 28.2797 16.2106 27.9846C15.9154 27.6895 15.7497 27.2892 15.7497 26.8719C15.7497 26.4545 15.9154 26.0543 16.2106 25.7591C16.5057 25.464 16.9059 25.2982 17.3233 25.2982C17.7407 25.2982 18.1409 25.464 18.436 25.7591C18.7311 26.0543 18.8969 26.4545 18.8969 26.8719C18.8969 27.2892 18.7311 27.6895 18.436 27.9846C18.1409 28.2797 17.7407 28.4455 17.3233 28.4455ZM17.3233 6.41451C17.7407 6.41451 18.1409 6.5803 18.436 6.87542C18.7311 7.17053 18.8969 7.5708 18.8969 7.98815C18.8969 8.40551 18.7311 8.80577 18.436 9.10089C18.1409 9.396 17.7407 9.56179 17.3233 9.56179C16.9059 9.56179 16.5057 9.396 16.2106 9.10089C15.9154 8.80577 15.7497 8.40551 15.7497 7.98815C15.7497 7.5708 15.9154 7.17053 16.2106 6.87542C16.5057 6.5803 16.9059 6.41451 17.3233 6.41451ZM17.3233 15.8564C17.7407 15.8564 18.1409 16.0222 18.436 16.3173C18.7311 16.6124 18.8969 17.0127 18.8969 17.43C18.8969 17.8474 18.7311 18.2476 18.436 18.5427C18.1409 18.8379 17.7407 19.0037 17.3233 19.0037C16.9059 19.0037 16.5057 18.8379 16.2106 18.5427C15.9154 18.2476 15.7497 17.8474 15.7497 17.43C15.7497 17.0127 15.9154 16.6124 16.2106 16.3173C16.5057 16.0222 16.9059 15.8564 17.3233 15.8564Z" fill="#F26A7E"/>
<path d="M33.0596 0.119934H28.3386V34.7401H33.0596C33.4769 34.7401 33.8772 34.5743 34.1723 34.2792C34.4674 33.9841 34.6332 33.5838 34.6332 33.1664V1.69358C34.6332 1.27622 34.4674 0.875958 34.1723 0.580842C33.8772 0.285727 33.4769 0.119934 33.0596 0.119934Z" fill="#A9ACCB"/>
</svg>
