<svg width="36" height="35" viewBox="0 0 36 35" fill="none" xmlns="http://www.w3.org/2000/svg">
<path d="M12.9705 14.2827H1.95499C1.53763 14.2827 1.13737 14.1169 0.842256 13.8218C0.547141 13.5267 0.381348 13.1264 0.381348 12.7091V1.69358C0.381348 1.27622 0.547141 0.875958 0.842256 0.580842C1.13737 0.285727 1.53763 0.119934 1.95499 0.119934H12.9705C13.3879 0.119934 13.7881 0.285727 14.0832 0.580842C14.3783 0.875958 14.5441 1.27622 14.5441 1.69358V12.7091C14.5441 13.1264 14.3783 13.5267 14.0832 13.8218C13.7881 14.1169 13.3879 14.2827 12.9705 14.2827Z" fill="#F26A7E"/>
<path d="M12.9705 34.7401H1.95499C1.53763 34.7401 1.13737 34.5743 0.842256 34.2792C0.547141 33.984 0.381348 33.5838 0.381348 33.1664V22.1509C0.381348 21.7336 0.547141 21.3333 0.842256 21.0382C1.13737 20.7431 1.53763 20.5773 1.95499 20.5773H12.9705C13.3879 20.5773 13.7881 20.7431 14.0832 21.0382C14.3783 21.3333 14.5441 21.7336 14.5441 22.1509V33.1664C14.5441 33.5838 14.3783 33.984 14.0832 34.2792C13.7881 34.5743 13.3879 34.7401 12.9705 34.7401Z" fill="#F26A7E"/>
<path d="M19.265 1.69354H35.0014V4.84083H19.265V1.69354Z" fill="#A9ACCB"/>
<path d="M35.0014 22.1509H19.265V25.2982H35.0014V22.1509Z" fill="#A9ACCB"/>
<path d="M35.0014 30.0192H19.265V33.1665H35.0014V30.0192Z" fill="#A9ACCB"/>
<path d="M35.0014 9.56177H19.265V12.7091H35.0014V9.56177Z" fill="#A9ACCB"/>
</svg>
