<svg width="24" height="28" viewBox="0 0 24 28" fill="none" xmlns="http://www.w3.org/2000/svg">
<path d="M22.8647 18.9858C22.3746 17.4978 22.1241 15.9413 22.1227 14.3746V10.5035C22.1583 8.05056 21.2829 5.6716 19.6659 3.82684C18.0544 1.97916 15.8177 0.791147 13.3845 0.490461C12.0399 0.350961 10.672 0.490461 9.3739 0.930273C8.07578 1.34684 6.8939 2.0424 5.89803 2.97046C4.89719 3.87459 4.09947 4.98069 3.55753 6.21577C3.01289 7.45038 2.72862 8.78401 2.72246 10.1334V14.3959C2.71962 15.9561 2.46915 17.5061 1.9804 18.9878L0.821777 22.4152L1.74984 23.6901H8.54078C8.54078 24.7092 8.95734 25.7051 9.67615 26.4258C10.393 27.1427 11.3908 27.5612 12.4119 27.5612C13.431 27.5612 14.4269 27.1446 15.1457 26.4258C15.8645 25.707 16.283 24.7092 16.283 23.6901H23.074L24.0001 22.4152L22.8647 18.9858ZM13.7778 25.0831C13.5996 25.265 13.3871 25.4098 13.1527 25.5092C12.9183 25.6086 12.6665 25.6607 12.4119 25.6625C12.1568 25.6607 11.9046 25.6084 11.6698 25.5087C11.435 25.4089 11.2224 25.2636 11.044 25.0812C10.8619 24.9031 10.7167 24.6907 10.617 24.4563C10.5172 24.2219 10.4648 23.97 10.4628 23.7153H14.3358C14.3439 23.9695 14.2986 24.2226 14.2028 24.4582C14.107 24.6938 13.9629 24.9067 13.7798 25.0831H13.7778ZM3.09253 21.77L3.81134 19.6116C4.37188 17.9302 4.6616 16.1703 4.66965 14.3978V10.1334C4.66965 9.04259 4.90215 7.97696 5.34196 7.0024C5.78178 6.00652 6.40759 5.12496 7.2194 4.40615C8.03121 3.66602 8.98253 3.10802 10.0017 2.78446C11.044 2.43571 12.1329 2.31946 13.1985 2.43571C15.1516 2.69252 16.9422 3.65782 18.2302 5.14821C19.5186 6.64046 20.2112 8.55555 20.1755 10.5267V14.4211C20.1755 16.1823 20.4545 17.9435 21.0338 19.6349L21.7526 21.7913H3.09446V21.7681L3.09253 21.77Z" fill="#404366"/>
</svg>
