<svg width="25" height="25" viewBox="0 0 25 25" fill="none" xmlns="http://www.w3.org/2000/svg">
<path d="M9.16152 0H2.13413C0.957373 0 0 0.957373 0 2.13413V9.16152C0 10.3383 0.957373 11.2957 2.13413 11.2957H9.16152C10.3383 11.2957 11.2957 10.3383 11.2957 9.16152V2.13413C11.2957 0.957373 10.3383 0 9.16152 0Z" fill="#C9CBE2"/>
<path d="M22.8659 0H15.8385C14.6617 0 13.7043 0.957373 13.7043 2.13413V9.16152C13.7043 10.3383 14.6617 11.2957 15.8385 11.2957H22.8659C24.0426 11.2957 25 10.3383 25 9.16152V2.13413C25 0.957373 24.0426 0 22.8659 0Z" fill="#C9CBE2"/>
<path d="M9.16152 13.7043H2.13413C0.957373 13.7043 0 14.6617 0 15.8385V22.8659C0 24.0426 0.957373 25 2.13413 25H9.16152C10.3383 25 11.2957 24.0426 11.2957 22.8659V15.8385C11.2957 14.6617 10.3383 13.7043 9.16152 13.7043Z" fill="#C9CBE2"/>
<path d="M22.8659 13.7043H15.8385C14.6617 13.7043 13.7043 14.6617 13.7043 15.8385V22.8659C13.7043 24.0426 14.6617 25 15.8385 25H22.8659C24.0426 25 25 24.0426 25 22.8659V15.8385C25 14.6617 24.0426 13.7043 22.8659 13.7043Z" fill="#C9CBE2"/>
</svg>
