<svg width="25" height="23" viewBox="0 0 25 23" fill="none" xmlns="http://www.w3.org/2000/svg">
<path d="M12.5843 3.90022C12.8366 3.56213 13.0548 3.24364 13.3022 2.94475C14.3208 1.71978 15.5238 0.749607 17.0614 0.289019C19.6176 -0.47046 22.5425 0.27432 24.0316 3.31224C25.317 5.93367 25.2879 8.61879 24.1528 11.2941C23.3913 13.0826 22.2369 14.6015 20.8933 15.9784C18.5165 18.4185 15.7808 20.3785 12.7978 21.9856C12.6426 22.0689 12.5213 22.064 12.3709 21.9856C9.93111 20.6676 7.65136 19.1143 5.58989 17.2475C4.00862 15.8118 2.57287 14.2438 1.53486 12.3476C0.137905 9.78986 -0.211333 7.11453 0.719967 4.32161C1.16137 2.99375 1.88409 1.83248 3.05307 1.0338C4.88657 -0.215667 6.85103 -0.284265 8.84944 0.568312C10.3677 1.21509 11.5075 2.34206 12.4388 3.68953C12.4825 3.74833 12.5261 3.80712 12.5843 3.90022Z" fill="#C9CBE2"/>
</svg>
