<svg width="13" height="13" viewBox="0 0 13 13" fill="none" xmlns="http://www.w3.org/2000/svg">
<path d="M0.649839 7.79623H1.94986V12.3495C1.94986 12.522 2.01834 12.6875 2.14024 12.8095C2.26214 12.9315 2.42747 13 2.59987 13H10.4C10.5724 13 10.7377 12.9315 10.8596 12.8095C10.9815 12.6875 11.05 12.522 11.05 12.3495V7.79623H12.35C12.4756 7.79634 12.5986 7.75995 12.7039 7.69147C12.8093 7.623 12.8925 7.52539 12.9435 7.4105C12.9948 7.29566 13.0117 7.16838 12.9921 7.04413C12.9724 6.91987 12.9172 6.804 12.833 6.71059L6.98288 0.205874C6.73652 -0.0686247 6.26332 -0.0686247 6.01696 0.205874L0.166882 6.71059C0.0828302 6.80404 0.0276423 6.91986 0.00799635 7.04404C-0.0116496 7.16822 0.00508843 7.29544 0.0561851 7.4103C0.107282 7.52516 0.190547 7.62274 0.295906 7.69123C0.401264 7.75973 0.524201 7.79619 0.649839 7.79623ZM4.32434 6.26176C4.59489 5.99446 4.95978 5.84458 5.33998 5.84458C5.72017 5.84458 6.08506 5.99446 6.35562 6.26176L6.50122 6.40487L6.64617 6.26176C6.91684 5.99442 7.28183 5.84453 7.66214 5.84453C8.04244 5.84453 8.40743 5.99442 8.6781 6.26176C8.81238 6.39104 8.9192 6.5461 8.99217 6.71767C9.06513 6.88924 9.10274 7.07378 9.10274 7.26024C9.10274 7.4467 9.06513 7.63124 8.99217 7.80281C8.9192 7.97438 8.81238 8.12944 8.6781 8.25871L6.50122 10.3981L4.32434 8.25871C4.19006 8.12944 4.08324 7.97438 4.01027 7.80281C3.93731 7.63124 3.8997 7.4467 3.8997 7.26024C3.8997 7.07378 3.93731 6.88924 4.01027 6.71767C4.08324 6.5461 4.19006 6.39104 4.32434 6.26176Z" fill="#F26A7E"/>
</svg>
