<svg width="41" height="40" viewBox="0 0 41 40" fill="none" xmlns="http://www.w3.org/2000/svg">
<path d="M20.4997 15C17.4442 15 14.9999 17.4826 14.9999 20.5C14.9999 23.5556 17.4824 26 20.4997 26C23.5551 26 25.9994 23.5174 25.9994 20.5C26.0376 17.4444 23.5551 15 20.4997 15ZM20.4997 24.0521C18.5136 24.0521 16.9477 22.4479 16.9477 20.4618C16.9477 18.4757 18.5518 16.8715 20.4997 16.8715C22.4857 16.8715 24.0898 18.4757 24.0898 20.4618C24.0898 22.4479 22.4857 24.0521 20.4997 24.0521Z" fill="#404366"/>
<path d="M27.9999 14.5C27.9999 15.3382 27.3381 16 26.4999 16C25.6616 16 24.9999 15.3382 24.9999 14.5C24.9999 13.6618 25.6616 13 26.4999 13C27.3381 13 27.9999 13.6618 27.9999 14.5Z" fill="#404366"/>
<path d="M30.9216 15.4591C30.8824 14.2847 30.6867 13.5018 30.4127 12.7972C30.1387 12.0534 29.7081 11.3879 29.16 10.8399C28.612 10.2918 27.9465 9.86121 27.2027 9.58719C26.4981 9.31317 25.7152 9.11744 24.5408 9.07829C23.3664 9.03915 22.975 9 19.9999 9C17.0248 9 16.6333 9 15.459 9.07829C14.2846 9.11744 13.5017 9.31317 12.797 9.58719C12.0533 9.86121 11.3878 10.2918 10.8397 10.8399C10.2917 11.3879 9.86109 12.0534 9.58707 12.7972C9.31305 13.5018 9.11732 14.2847 9.07817 15.4591C9.03903 16.6335 8.99988 17.0249 8.99988 20C8.99988 22.9751 8.99988 23.3665 9.07817 24.5409C9.11732 25.7153 9.31305 26.4982 9.58707 27.2028C9.86109 27.9466 10.2917 28.6121 10.8397 29.1601C11.3878 29.7082 12.0533 30.1388 12.797 30.4128C13.5017 30.6868 14.2846 30.8826 15.459 30.9217C16.6333 30.9609 17.0248 31 19.9999 31C22.975 31 23.3664 31 24.5408 30.9217C25.7152 30.8826 26.4981 30.6868 27.2027 30.4128C28.6903 29.8256 29.8646 28.6904 30.4127 27.2028C30.6867 26.4982 30.8824 25.7153 30.9216 24.5409C30.9607 23.3665 30.9999 23.0142 30.9999 20C30.9999 16.9858 30.9999 16.6335 30.9216 15.4591ZM28.9643 24.4235C28.9251 25.4804 28.7294 26.0676 28.5728 26.4591C28.2205 27.3986 27.4376 28.1815 26.4981 28.5338C26.1066 28.6904 25.5195 28.847 24.4625 28.9253C23.2881 28.9644 22.975 29.0036 20.039 29.0036C17.1031 29.0036 16.7508 29.0036 15.6155 28.9253C14.5586 28.8861 13.9714 28.6904 13.58 28.5338C13.1102 28.3381 12.6796 28.0641 12.3273 27.7117C11.975 27.3594 11.6618 26.9288 11.5052 26.4591C11.3486 26.0676 11.192 25.4804 11.1138 24.4235C11.0746 23.2491 11.0355 22.9359 11.0355 20C11.0355 17.0641 11.0355 16.7117 11.1138 15.5765C11.1529 14.5196 11.3486 13.9324 11.5052 13.5409C11.7009 13.0712 11.975 12.6406 12.3273 12.2883C12.6796 11.9359 13.1102 11.6228 13.58 11.4662C13.9714 11.3096 14.5586 11.1139 15.6155 11.0747C16.7899 11.0356 17.1031 10.9964 20.039 10.9964C22.975 10.9964 23.3273 10.9964 24.4625 11.0747C25.5195 11.1139 26.1066 11.3096 26.4981 11.4662C26.9678 11.6228 27.3985 11.9359 27.7508 12.2883C28.1031 12.6406 28.3771 13.0712 28.5728 13.5409C28.7294 13.9324 28.886 14.5196 28.9643 15.5765C29.0034 16.7509 29.0426 17.1032 29.0426 20C29.0426 22.9359 29.0034 23.2883 28.9643 24.4235Z" fill="#404366"/>
<path d="M20.499 39.5C31.5324 39.5 40.499 30.7817 40.499 20C40.499 9.21828 31.5324 0.5 20.499 0.5C9.46565 0.5 0.499023 9.21828 0.499023 20C0.499023 30.7817 9.46565 39.5 20.499 39.5Z" stroke="#A3B1C2"/>
</svg>
