<svg width="10" height="14" viewBox="0 0 10 14" fill="none" xmlns="http://www.w3.org/2000/svg">
<path d="M1.34246 7.84711L7.50972 13.2426C8.23646 13.8794 9.37496 13.3619 9.37496 12.3955V1.60448C9.37515 1.38821 9.31299 1.17646 9.19593 0.994605C9.07887 0.812748 8.91187 0.668488 8.71494 0.5791C8.518 0.489713 8.29947 0.458986 8.08552 0.490601C7.87156 0.522215 7.67126 0.61483 7.50859 0.757356L1.34359 6.15286C1.22275 6.25845 1.12591 6.38867 1.05955 6.53478C0.993193 6.68089 0.958862 6.83951 0.958862 6.99998C0.958862 7.16045 0.993193 7.31907 1.05955 7.46518C1.12591 7.61129 1.22275 7.74151 1.34359 7.84711H1.34246Z" fill="#C9CBE2"/>
</svg>
