<svg width="25" height="22" viewBox="0 0 25 22" fill="none" xmlns="http://www.w3.org/2000/svg">
<path d="M23.8057 21.2442H7.798C7.13825 21.2442 6.60352 20.6115 6.60352 19.8309C6.60352 19.0502 7.13825 18.4175 7.798 18.4175H23.8053C24.465 18.4175 24.9998 19.0502 24.9998 19.8309C24.9998 20.6115 24.4654 21.2442 23.8057 21.2442Z" fill="#F26A7E"/>
<path d="M23.8057 12.7637H7.798C7.13825 12.7637 6.60352 12.131 6.60352 11.3504C6.60352 10.5697 7.13825 9.93701 7.798 9.93701H23.8053C24.465 9.93701 24.9998 10.5697 24.9998 11.3504C25.0002 12.131 24.4654 12.7637 23.8057 12.7637Z" fill="#F26A7E"/>
<path d="M23.8057 3.81207H7.798C7.13825 3.81207 6.60352 3.17936 6.60352 2.39871C6.60352 1.61807 7.13825 0.985352 7.798 0.985352H23.8053C24.465 0.985352 24.9998 1.61807 24.9998 2.39871C24.9998 3.17936 24.4654 3.81207 23.8057 3.81207Z" fill="#F26A7E"/>
<path d="M1.90045 4.31091C2.95004 4.31091 3.8009 3.46109 3.8009 2.41278C3.8009 1.36447 2.95004 0.514648 1.90045 0.514648C0.850861 0.514648 0 1.36447 0 2.41278C0 3.46109 0.850861 4.31091 1.90045 4.31091Z" fill="#F26A7E"/>
<path d="M1.90045 13.0732C2.95004 13.0732 3.8009 12.2233 3.8009 11.175C3.8009 10.1267 2.95004 9.27686 1.90045 9.27686C0.850861 9.27686 0 10.1267 0 11.175C0 12.2233 0.850861 13.0732 1.90045 13.0732Z" fill="#F26A7E"/>
<path d="M1.90045 21.8358C2.95004 21.8358 3.8009 20.986 3.8009 19.9377C3.8009 18.8894 2.95004 18.0396 1.90045 18.0396C0.850861 18.0396 0 18.8894 0 19.9377C0 20.986 0.850861 21.8358 1.90045 21.8358Z" fill="#F26A7E"/>
</svg>
