<svg width="25" height="23" viewBox="0 0 25 23" fill="none" xmlns="http://www.w3.org/2000/svg">
<path d="M23.8057 22.0661H7.798C7.13825 22.0661 6.60352 21.3926 6.60352 20.5616C6.60352 19.7306 7.13825 19.0571 7.798 19.0571H23.8053C24.465 19.0571 24.9998 19.7306 24.9998 20.5616C24.9998 21.3926 24.4654 22.0661 23.8057 22.0661Z" fill="#C9CBE2"/>
<path d="M23.8057 13.0388H7.798C7.13825 13.0388 6.60352 12.3652 6.60352 11.5343C6.60352 10.7033 7.13825 10.0298 7.798 10.0298H23.8053C24.465 10.0298 24.9998 10.7033 24.9998 11.5343C25.0002 12.3652 24.4654 13.0388 23.8057 13.0388Z" fill="#C9CBE2"/>
<path d="M23.8057 3.51089H7.798C7.13825 3.51089 6.60352 2.83739 6.60352 2.00642C6.60352 1.17545 7.13825 0.501953 7.798 0.501953H23.8053C24.465 0.501953 24.9998 1.17545 24.9998 2.00642C24.9998 2.83739 24.4654 3.51089 23.8057 3.51089Z" fill="#C9CBE2"/>
<path d="M1.90045 4.04105C2.95004 4.04105 3.8009 3.13643 3.8009 2.02052C3.8009 0.904619 2.95004 0 1.90045 0C0.850861 0 0 0.904619 0 2.02052C0 3.13643 0.850861 4.04105 1.90045 4.04105Z" fill="#C9CBE2"/>
<path d="M1.90045 13.3682C2.95004 13.3682 3.8009 12.4636 3.8009 11.3477C3.8009 10.2318 2.95004 9.32715 1.90045 9.32715C0.850861 9.32715 0 10.2318 0 11.3477C0 12.4636 0.850861 13.3682 1.90045 13.3682Z" fill="#C9CBE2"/>
<path d="M1.90045 22.6963C2.95004 22.6963 3.8009 21.7917 3.8009 20.6758C3.8009 19.5599 2.95004 18.6553 1.90045 18.6553C0.850861 18.6553 0 19.5599 0 20.6758C0 21.7917 0.850861 22.6963 1.90045 22.6963Z" fill="#C9CBE2"/>
</svg>
