<svg width="13" height="13" viewBox="0 0 13 13" fill="none" xmlns="http://www.w3.org/2000/svg">
<path fill-rule="evenodd" clip-rule="evenodd" d="M0.928571 1.625C0.928571 1.19402 1.12423 0.780698 1.47252 0.475951C1.8208 0.171205 2.29317 0 2.78571 0H10.2143C10.7068 0 11.1792 0.171205 11.5275 0.475951C11.8758 0.780698 12.0714 1.19402 12.0714 1.625V11.375C12.3177 11.375 12.5539 11.4606 12.728 11.613C12.9022 11.7653 13 11.972 13 12.1875C13 12.403 12.9022 12.6097 12.728 12.762C12.5539 12.9144 12.3177 13 12.0714 13H9.28571C9.03944 13 8.80326 12.9144 8.62912 12.762C8.45497 12.6097 8.35714 12.403 8.35714 12.1875V10.5625C8.35714 10.347 8.25931 10.1403 8.08517 9.98798C7.91103 9.8356 7.67484 9.75 7.42857 9.75H5.57143C5.32516 9.75 5.08897 9.8356 4.91483 9.98798C4.74069 10.1403 4.64286 10.347 4.64286 10.5625V12.1875C4.64286 12.403 4.54503 12.6097 4.37088 12.762C4.19674 12.9144 3.96056 13 3.71429 13H0.928571C0.682299 13 0.446113 12.9144 0.271972 12.762C0.0978313 12.6097 0 12.403 0 12.1875C0 11.972 0.0978313 11.7653 0.271972 11.613C0.446113 11.4606 0.682299 11.375 0.928571 11.375V1.625ZM3.71429 2.4375H5.57143V4.0625H3.71429V2.4375ZM5.57143 5.6875H3.71429V7.3125H5.57143V5.6875ZM7.42857 2.4375H9.28571V4.0625H7.42857V2.4375ZM9.28571 5.6875H7.42857V7.3125H9.28571V5.6875Z" fill="#F26A7E"/>
</svg>
