<svg width="50" height="50" viewBox="0 0 50 50" fill="none" xmlns="http://www.w3.org/2000/svg">
<path d="M36 38V35.3333C36 33.9188 35.4205 32.5623 34.3891 31.5621C33.3576 30.5619 31.9587 30 30.5 30H19.5C18.0413 30 16.6424 30.5619 15.6109 31.5621C14.5795 32.5623 14 33.9188 14 35.3333V38" stroke="#C9CBE2" stroke-width="2.17391" stroke-linecap="round" stroke-linejoin="round"/>
<path d="M24.5 24C27.5376 24 30 21.5376 30 18.5C30 15.4624 27.5376 13 24.5 13C21.4624 13 19 15.4624 19 18.5C19 21.5376 21.4624 24 24.5 24Z" stroke="#C9CBE2" stroke-width="2.17391" stroke-linecap="round" stroke-linejoin="round"/>
<circle cx="25" cy="25" r="23.75" stroke="#C9CBE2" stroke-width="2.5"/>
<mask id="path-4-inside-1_1477:2568" fill="white">
<path d="M25 0C28.283 3.91499e-08 31.5339 0.646644 34.5671 1.90301C37.6002 3.15938 40.3562 5.00087 42.6777 7.32233C44.9991 9.6438 46.8406 12.3998 48.097 15.4329C49.3534 18.4661 50 21.717 50 25C50 28.2831 49.3534 31.534 48.097 34.5671C46.8406 37.6002 44.9991 40.3562 42.6777 42.6777C40.3562 44.9991 37.6002 46.8406 34.5671 48.097C31.5339 49.3534 28.283 50 25 50L25 47.2331C27.9197 47.2331 30.8108 46.6581 33.5082 45.5407C36.2057 44.4234 38.6567 42.7857 40.7212 40.7212C42.7857 38.6567 44.4234 36.2057 45.5407 33.5083C46.658 30.8108 47.2331 27.9197 47.2331 25C47.2331 22.0803 46.658 19.1892 45.5407 16.4918C44.4234 13.7943 42.7857 11.3433 40.7212 9.27881C38.6567 7.21427 36.2057 5.57659 33.5082 4.45927C30.8108 3.34195 27.9197 2.76687 25 2.76687L25 0Z"/>
</mask>
<path d="M25 0C28.283 3.91499e-08 31.5339 0.646644 34.5671 1.90301C37.6002 3.15938 40.3562 5.00087 42.6777 7.32233C44.9991 9.6438 46.8406 12.3998 48.097 15.4329C49.3534 18.4661 50 21.717 50 25C50 28.2831 49.3534 31.534 48.097 34.5671C46.8406 37.6002 44.9991 40.3562 42.6777 42.6777C40.3562 44.9991 37.6002 46.8406 34.5671 48.097C31.5339 49.3534 28.283 50 25 50L25 47.2331C27.9197 47.2331 30.8108 46.6581 33.5082 45.5407C36.2057 44.4234 38.6567 42.7857 40.7212 40.7212C42.7857 38.6567 44.4234 36.2057 45.5407 33.5083C46.658 30.8108 47.2331 27.9197 47.2331 25C47.2331 22.0803 46.658 19.1892 45.5407 16.4918C44.4234 13.7943 42.7857 11.3433 40.7212 9.27881C38.6567 7.21427 36.2057 5.57659 33.5082 4.45927C30.8108 3.34195 27.9197 2.76687 25 2.76687L25 0Z" stroke="#F37386" stroke-width="5" mask="url(#path-4-inside-1_1477:2568)"/>
</svg>
