<svg width="32" height="30" viewBox="0 0 32 30" fill="none" xmlns="http://www.w3.org/2000/svg">
<path d="M27.2 8H4.8C3.2536 8 2 9.27919 2 10.8571V25.1429C2 26.7208 3.2536 28 4.8 28H27.2C28.7464 28 30 26.7208 30 25.1429V10.8571C30 9.27919 28.7464 8 27.2 8Z" stroke="#404366" stroke-width="3" stroke-linecap="round" stroke-linejoin="round"/>
<path d="M22 28V4.88889C22 4.12271 21.6839 3.38791 21.1213 2.84614C20.5587 2.30436 19.7956 2 19 2H13C12.2044 2 11.4413 2.30436 10.8787 2.84614C10.3161 3.38791 10 4.12271 10 4.88889V28" stroke="#404366" stroke-width="3" stroke-linecap="round" stroke-linejoin="round"/>
</svg>
