<svg width="10" height="14" viewBox="0 0 10 14" fill="none" xmlns="http://www.w3.org/2000/svg">
<path d="M8.6575 7.84711L2.49025 13.2426C1.7635 13.8794 0.625 13.3619 0.625 12.3955V1.60448C0.624815 1.38821 0.686974 1.17646 0.804034 0.994605C0.921093 0.812748 1.08809 0.668488 1.28503 0.5791C1.48197 0.489713 1.7005 0.458986 1.91445 0.490601C2.1284 0.522215 2.32871 0.61483 2.49138 0.757356L8.65638 6.15286C8.77721 6.25845 8.87406 6.38867 8.94042 6.53478C9.00677 6.68089 9.0411 6.83951 9.0411 6.99998C9.0411 7.16045 9.00677 7.31907 8.94042 7.46518C8.87406 7.61129 8.77721 7.74151 8.65638 7.84711H8.6575Z" fill="#F26A7E"/>
</svg>
