<svg width="21" height="23" viewBox="0 0 21 23" fill="none" xmlns="http://www.w3.org/2000/svg">
<path d="M16.3577 14.7949C15.7825 14.798 15.2153 14.939 14.6979 15.2074C14.1805 15.4758 13.7261 15.8648 13.3683 16.3457L7.75067 12.596C7.95541 11.8905 7.95541 11.1353 7.75067 10.4298L13.3683 6.68012C13.9385 7.43393 14.7402 7.94795 15.6313 8.13111C16.5225 8.31427 17.4456 8.15476 18.2371 7.68083C19.0286 7.2069 19.6375 6.44914 19.9559 5.54179C20.2743 4.63443 20.2816 3.63605 19.9765 2.7235C19.6715 1.81094 19.0737 1.04312 18.2892 0.556045C17.5047 0.0689678 16.5841 -0.105924 15.6904 0.0623505C14.7966 0.230625 13.9875 0.731204 13.4064 1.47541C12.8253 2.21962 12.5096 3.15943 12.5153 4.12834C12.5189 4.49526 12.5707 4.85982 12.669 5.21141L7.05134 8.96113C6.55539 8.29453 5.87751 7.80918 5.11164 7.57233C4.34577 7.33549 3.52987 7.3589 2.77702 7.6393C2.02416 7.91971 1.37166 8.44323 0.909951 9.13729C0.448241 9.83136 0.200195 10.6616 0.200195 11.5129C0.200195 12.3642 0.448241 13.1945 0.909951 13.8885C1.37166 14.5826 2.02416 15.1061 2.77702 15.3865C3.52987 15.6669 4.34577 15.6903 5.11164 15.4535C5.87751 15.2166 6.55539 14.7313 7.05134 14.0647L12.669 17.8144C12.5707 18.166 12.5189 18.5306 12.5153 18.8975C12.5153 19.7089 12.7407 20.5021 13.1629 21.1767C13.5851 21.8514 14.1852 22.3772 14.8873 22.6877C15.5894 22.9982 16.362 23.0795 17.1074 22.9212C17.8527 22.7629 18.5374 22.3721 19.0748 21.7984C19.6121 21.2246 19.9781 20.4936 20.1264 19.6978C20.2746 18.902 20.1985 18.0771 19.9077 17.3275C19.6169 16.5779 19.1244 15.9371 18.4925 15.4863C17.8606 15.0355 17.1177 14.7949 16.3577 14.7949V14.7949ZM16.3577 1.66682C16.8137 1.66682 17.2595 1.81119 17.6386 2.08166C18.0177 2.35214 18.3132 2.73658 18.4877 3.18636C18.6622 3.63614 18.7079 4.13107 18.6189 4.60856C18.53 5.08605 18.3104 5.52465 17.988 5.8689C17.6655 6.21315 17.2547 6.44759 16.8075 6.54257C16.3603 6.63754 15.8968 6.5888 15.4755 6.40249C15.0542 6.21618 14.6941 5.90068 14.4408 5.49589C14.1875 5.09109 14.0523 4.61519 14.0523 4.12834C14.0523 3.47551 14.2952 2.84941 14.7275 2.38778C15.1599 1.92616 15.7463 1.66682 16.3577 1.66682V1.66682ZM4.06192 13.9744C3.60594 13.9744 3.1602 13.8301 2.78107 13.5596C2.40194 13.2891 2.10644 12.9047 1.93195 12.4549C1.75745 12.0051 1.71179 11.5102 1.80075 11.0327C1.88971 10.5552 2.10928 10.1166 2.43171 9.77235C2.75413 9.4281 3.16493 9.19366 3.61215 9.09868C4.05936 9.0037 4.52291 9.05245 4.94418 9.23876C5.36545 9.42506 5.72552 9.74056 5.97885 10.1454C6.23217 10.5502 6.36739 11.0261 6.36739 11.5129C6.36739 12.1657 6.12449 12.7918 5.69213 13.2535C5.25977 13.7151 4.67337 13.9744 4.06192 13.9744ZM16.3577 21.359C15.9018 21.359 15.456 21.2146 15.0769 20.9441C14.6978 20.6737 14.4023 20.2892 14.2278 19.8394C14.0533 19.3897 14.0076 18.8947 14.0966 18.4172C14.1855 17.9398 14.4051 17.5012 14.7275 17.1569C15.05 16.8127 15.4608 16.5782 15.908 16.4832C16.3552 16.3883 16.8187 16.437 17.24 16.6233C17.6613 16.8096 18.0213 17.1251 18.2747 17.5299C18.528 17.9347 18.6632 18.4106 18.6632 18.8975C18.6632 19.5503 18.4203 20.1764 17.988 20.638C17.5556 21.0996 16.9692 21.359 16.3577 21.359V21.359Z" fill="#C9CBE2"/>
</svg>
