<svg width="20" height="14" viewBox="0 0 20 14" fill="none" xmlns="http://www.w3.org/2000/svg">
<path d="M7.77778 12.2222C7.77778 12.8359 8.27524 13.3333 8.88889 13.3333H11.1111C11.7248 13.3333 12.2222 12.8359 12.2222 12.2222V12.2222C12.2222 11.6086 11.7248 11.1111 11.1111 11.1111H8.88889C8.27524 11.1111 7.77778 11.6086 7.77778 12.2222V12.2222ZM1.11111 0C0.497461 0 0 0.497462 0 1.11111V1.11111C0 1.72476 0.497461 2.22222 1.11111 2.22222H18.8889C19.5025 2.22222 20 1.72476 20 1.11111V1.11111C20 0.497462 19.5025 0 18.8889 0H1.11111ZM3.33333 6.66667C3.33333 7.28032 3.83079 7.77778 4.44444 7.77778H15.5556C16.1692 7.77778 16.6667 7.28032 16.6667 6.66667V6.66667C16.6667 6.05302 16.1692 5.55556 15.5556 5.55556H4.44444C3.83079 5.55556 3.33333 6.05302 3.33333 6.66667V6.66667Z" fill="#F26A7E"/>
</svg>
