<svg width="41" height="40" viewBox="0 0 41 40" fill="none" xmlns="http://www.w3.org/2000/svg">
<path d="M10.777 22.1068C10.777 22.1471 10.7356 22.1873 10.7356 22.1873C11.4818 24.3214 13.1817 25.2877 15.4205 25.7306C14.384 26.6567 13.0988 26.9788 11.8964 27.3412C10.6527 27.7036 9.32597 27.7841 7.99927 27.6633C8.04073 27.7841 8.12364 27.8244 8.1651 27.8647C8.41386 28.0257 8.66261 28.1465 8.91137 28.2673C13.0573 30.2806 17.3691 30.5624 21.7223 28.9921C25.4951 27.6231 28.1071 25.0864 29.5167 21.382C30.263 19.4091 30.5532 17.3958 30.5532 15.302C30.5532 15.1007 30.5946 14.9799 30.7605 14.8591C31.5897 14.2954 32.2115 13.5707 32.8334 12.8056C32.9164 12.6848 32.9578 12.5238 32.9993 12.3627C32.9578 12.3627 32.9578 12.3224 32.9163 12.3224C32.1701 12.6446 31.4238 12.8459 30.5946 13.0069C31.6726 12.0809 32.4188 10.9534 32.4188 10.3495C31.3409 10.8729 30.3044 11.3158 29.185 11.5574C27.5266 9.86629 24.9976 9.54417 22.9661 10.6313C20.7687 11.8393 19.8981 13.6915 20.2298 16.1476C16.0838 15.5839 12.4769 14.0538 9.74055 10.9132C9.36742 11.195 9.03575 11.9601 8.95283 12.7251C8.78699 14.6578 9.40888 16.3087 11.0258 17.5971C10.2381 17.5569 9.61618 17.275 8.91137 16.9932C8.82845 17.6777 8.95283 18.2816 9.20159 18.8453C9.82348 20.4157 10.9843 21.5028 12.6427 21.986V22.0263C12.0208 22.1068 11.3989 22.1068 10.777 22.1068Z" fill="#404366"/>
<path d="M20.4993 39.5C31.5326 39.5 40.4993 30.7817 40.4993 20C40.4993 9.21828 31.5326 0.5 20.4993 0.5C9.4659 0.5 0.499268 9.21828 0.499268 20C0.499268 30.7817 9.4659 39.5 20.4993 39.5Z" stroke="#A3B1C2"/>
</svg>
