<svg width="19" height="19" viewBox="0 0 19 19" fill="none" xmlns="http://www.w3.org/2000/svg">
<path d="M13.8597 11.3265L13.8526 11.3859C12.1117 10.5182 11.9296 10.4027 11.7048 10.7399C11.5488 10.9734 11.0944 11.5031 10.9575 11.6598C10.8189 11.8142 10.6812 11.8261 10.446 11.7192C10.2085 11.6004 9.44617 11.3511 8.54367 10.5436C7.84067 9.91421 7.36883 9.14235 7.2295 8.90485C6.99754 8.50428 7.48283 8.44728 7.92458 7.61129C8.00375 7.44505 7.96338 7.31442 7.90479 7.19647C7.84542 7.07772 7.37279 5.91399 7.17488 5.45008C6.98488 4.98776 6.78933 5.04634 6.64288 5.04634C6.18687 5.00676 5.85358 5.01309 5.55988 5.31867C4.28212 6.72306 4.60433 8.17178 5.69763 9.71234C7.84621 12.5243 8.99096 13.042 11.0841 13.7608C11.6494 13.9406 12.1648 13.9152 12.5725 13.8566C13.0269 13.7846 13.9713 13.2859 14.1685 12.7277C14.3703 12.1696 14.3703 11.7065 14.311 11.5996C14.2524 11.4928 14.0972 11.4334 13.8597 11.3265Z" fill="#404366"/>
<path d="M16.245 2.73075C10.1579 -3.1536 0.0839167 1.1142 0.0799583 9.41546C0.0799583 11.0748 0.514583 12.6929 1.34267 14.1218L0 19L5.01521 17.6922C11.2733 21.0725 18.9968 16.5839 19 9.42021C19 6.90593 18.0183 4.53968 16.2331 2.76163L16.245 2.73075ZM17.4183 9.39409C17.4135 15.4368 10.7801 19.2106 5.53375 16.1263L5.24875 15.9569L2.28 16.7288L3.07562 13.8432L2.88642 13.5463C-0.378417 8.34911 3.3725 1.55673 9.557 1.55673C11.6581 1.55673 13.6301 2.37609 15.1153 3.86044C16.5997 5.33212 17.4183 7.30413 17.4183 9.39409Z" fill="#404366"/>
</svg>
