<svg width="24" height="22" viewBox="0 0 24 22" fill="none" xmlns="http://www.w3.org/2000/svg">
<path d="M16.9777 13.1149L16.9691 13.1837C14.8617 12.179 14.6413 12.0452 14.3692 12.4357C14.1804 12.7061 13.6303 13.3193 13.4645 13.5008C13.2968 13.6796 13.13 13.6933 12.8454 13.5696C12.5579 13.4321 11.635 13.1433 10.5425 12.2083C9.69153 11.4796 9.12036 10.5859 8.9517 10.3109C8.6709 9.84706 9.25836 9.78106 9.79311 8.81308C9.88895 8.62058 9.84007 8.46933 9.76915 8.33275C9.69728 8.19525 9.12515 6.84778 8.88557 6.31062C8.65557 5.7753 8.41886 5.84313 8.24157 5.84313C7.68957 5.7973 7.28611 5.80463 6.93057 6.15846C5.38382 7.7846 5.77386 9.46206 7.09732 11.2459C9.69824 14.5018 11.084 15.1013 13.6178 15.9336C14.3021 16.1417 14.9259 16.1124 15.4195 16.0445C15.9696 15.9611 17.1129 15.3836 17.3515 14.7374C17.5959 14.0911 17.5959 13.5549 17.524 13.4312C17.4531 13.3074 17.2652 13.2387 16.9777 13.1149Z" fill="#7AD192"/>
<path d="M19.8652 3.16192C12.4966 -3.65154 0.301779 1.29012 0.296987 10.9021C0.296987 12.8234 0.823112 14.697 1.82553 16.3516L0.200195 22L6.27124 20.4857C13.8469 24.3998 23.1964 19.2024 23.2002 10.9076C23.2002 7.99634 22.0119 5.25647 19.8508 3.19767L19.8652 3.16192ZM21.2854 10.8774C21.2797 17.8742 13.2498 22.2438 6.89894 18.6726L6.55395 18.4764L2.9602 19.3701L3.92332 16.0289L3.69428 15.6852C-0.257888 9.66739 4.28269 1.80253 11.7692 1.80253C14.3126 1.80253 16.6998 2.75126 18.4977 4.46998C20.2945 6.17404 21.2854 8.45741 21.2854 10.8774Z" fill="#7AD192"/>
</svg>
