<svg width="24" height="28" viewBox="0 0 24 28" fill="none" xmlns="http://www.w3.org/2000/svg">
<path d="M22.8647 18.9858C22.3745 17.4978 22.124 15.9413 22.1226 14.3746V10.5035C22.1583 8.05056 21.2829 5.6716 19.6658 3.82684C18.0543 1.97916 15.8177 0.791147 13.3845 0.490461C12.0398 0.350961 10.672 0.490461 9.37384 0.930273C8.07572 1.34684 6.89384 2.0424 5.89797 2.97046C4.89712 3.87459 4.09941 4.98069 3.55747 6.21577C3.01283 7.45038 2.72856 8.78401 2.7224 10.1334V14.3959C2.71956 15.9561 2.46909 17.5061 1.98034 18.9878L0.821716 22.4152L1.74978 23.6901H8.54072C8.54072 24.7092 8.95728 25.7051 9.67609 26.4258C10.393 27.1427 11.3908 27.5612 12.4118 27.5612C13.431 27.5612 14.4268 27.1446 15.1457 26.4258C15.8645 25.707 16.283 24.7092 16.283 23.6901H23.0739L24 22.4152L22.8647 18.9858ZM13.7778 25.0831C13.5995 25.265 13.3871 25.4098 13.1526 25.5092C12.9182 25.6086 12.6665 25.6607 12.4118 25.6625C12.1568 25.6607 11.9045 25.6084 11.6698 25.5087C11.435 25.4089 11.2223 25.2636 11.044 25.0812C10.8618 24.9031 10.7166 24.6907 10.6169 24.4563C10.5171 24.2219 10.4647 23.97 10.4627 23.7153H14.3358C14.3439 23.9695 14.2985 24.2226 14.2028 24.4582C14.107 24.6938 13.9629 24.9067 13.7797 25.0831H13.7778ZM3.09247 21.77L3.81128 19.6116C4.37182 17.9302 4.66154 16.1703 4.66959 14.3978V10.1334C4.66959 9.04259 4.90209 7.97696 5.3419 7.0024C5.78172 6.00652 6.40753 5.12496 7.21934 4.40615C8.03115 3.66602 8.98247 3.10802 10.0016 2.78446C11.044 2.43571 12.1328 2.31946 13.1985 2.43571C15.1515 2.69252 16.9421 3.65782 18.2302 5.14821C19.5186 6.64046 20.2112 8.55555 20.1754 10.5267V14.4211C20.1754 16.1823 20.4544 17.9435 21.0337 19.6349L21.7525 21.7913H3.0944V21.7681L3.09247 21.77Z" fill="#404366"/>
</svg>
