<svg width="50" height="40" viewBox="0 0 50 40" fill="none" xmlns="http://www.w3.org/2000/svg">
<path d="M2 1.99951H15.5691C17.9683 1.99951 20.2692 2.83597 21.9657 4.32487C23.6621 5.81377 24.6152 7.83316 24.6152 9.93879V37.7263C24.6152 36.147 23.9004 34.6325 22.628 33.5158C21.3557 32.3991 19.63 31.7718 17.8306 31.7718H2V1.99951Z" stroke="#404366" stroke-width="3.95893" stroke-linecap="round" stroke-linejoin="round"/>
<path d="M47.2304 1.99951H33.6613C31.2621 1.99951 28.9612 2.83597 27.2648 4.32487C25.5683 5.81377 24.6152 7.83316 24.6152 9.93879V37.7263C24.6152 36.147 25.33 34.6325 26.6024 33.5158C27.8747 32.3991 29.6004 31.7718 31.3998 31.7718H47.2304V1.99951Z" stroke="#404366" stroke-width="3.95893" stroke-linecap="round" stroke-linejoin="round"/>
</svg>
