<svg width="49" height="40" viewBox="0 0 49 40" fill="none" xmlns="http://www.w3.org/2000/svg">
<path d="M42.0882 10.6177H6.81796C4.38306 10.6177 2.40918 12.35 2.40918 14.487V33.8338C2.40918 35.9708 4.38306 37.7032 6.81796 37.7032H42.0882C44.5231 37.7032 46.497 35.9708 46.497 33.8338V14.487C46.497 12.35 44.5231 10.6177 42.0882 10.6177Z" stroke="#404366" stroke-width="3.85892" stroke-linecap="round" stroke-linejoin="round"/>
<path d="M33.2699 37.7021V6.74729C33.2699 5.72107 32.8054 4.73688 31.9786 4.01124C31.1518 3.28559 30.0304 2.87793 28.8611 2.87793H20.0435C18.8743 2.87793 17.7529 3.28559 16.9261 4.01124C16.0993 4.73688 15.6348 5.72107 15.6348 6.74729V37.7021" stroke="#404366" stroke-width="3.85892" stroke-linecap="round" stroke-linejoin="round"/>
</svg>
