<svg width="209" height="213" viewBox="0 0 209 213" fill="none" xmlns="http://www.w3.org/2000/svg">
<g filter="url(#filter0_dd_56:6808)">
<rect x="101.372" y="159.42" width="103.92" height="61.0218" rx="5.54737" transform="rotate(-90.0355 101.372 159.42)" fill="white"/>
<rect x="102.25" y="158.541" width="102.164" height="59.2651" rx="4.66904" transform="rotate(-90.0355 102.25 158.541)" stroke="#404366" stroke-width="1.75667"/>
</g>
<path d="M109.63 55.4614H115.469V56.6171H148.17V55.4614H154.009V56.6171H148.17V60.0842C148.17 60.0842 147.723 61.3625 147.002 61.9334C146.281 62.5043 144.666 62.8579 144.666 62.8579H118.973C118.973 62.8579 117.358 62.5043 116.637 61.9334C115.916 61.3625 115.469 60.0842 115.469 60.0842V56.6171H109.63V55.4614Z" fill="#404366"/>
<path d="M118.633 110.789L116.897 105.907L115.313 110.442L112.687 109.378L116.05 105.407L111.342 106.21L110.951 103.411L116.007 104.301L112.687 100.438L115.486 99.3318L116.983 103.78L118.85 98.9195L121.041 100.742L117.873 104.344L122.994 103.455L122.495 106.254L117.917 105.407L120.998 108.879L118.633 110.789Z" fill="#EB2929"/>
<path d="M137.28 110.788L135.544 105.906L133.96 110.441L131.335 109.377L134.698 105.406L129.989 106.209L129.599 103.41L134.654 104.3L131.335 100.437L134.134 99.3308L135.631 103.779L137.497 98.9185L139.689 100.741L136.521 104.343L141.642 103.454L141.142 106.253L136.564 105.406L139.645 108.878L137.28 110.788Z" fill="#EB2929"/>
<path d="M155.927 110.788L154.191 105.906L152.607 110.441L149.982 109.377L153.345 105.406L148.636 106.209L148.246 103.41L153.301 104.3L149.982 100.437L152.781 99.3308L154.278 103.779L156.144 98.9185L158.336 100.741L155.168 104.343L160.289 103.454L159.789 106.253L155.211 105.406L158.292 108.878L155.927 110.788Z" fill="#EB2929"/>
<path d="M174.574 110.771L172.839 105.888L171.255 110.424L168.629 109.36L171.992 105.389L167.284 106.192L166.893 103.393L171.949 104.283L168.629 100.42L171.428 99.3137L172.925 103.762L174.791 98.9014L176.983 100.724L173.815 104.326L178.936 103.436L178.437 106.236L173.858 105.389L176.94 108.861L174.574 110.771Z" fill="#EB2929"/>
<rect x="110.025" y="113.703" width="13.0769" height="1.74359" rx="0.871795" fill="#404366"/>
<rect x="126.59" y="113.703" width="13.0769" height="1.74359" rx="0.871795" fill="#404366"/>
<rect x="143.154" y="113.703" width="13.0769" height="1.74359" rx="0.871795" fill="#404366"/>
<rect x="116.102" y="131.276" width="31.4351" height="12.0193" rx="6.00965" fill="#EB2929"/>
<rect x="122.573" y="73.0278" width="17.5667" height="17.5667" rx="8.78334" fill="#404366"/>
<g filter="url(#filter1_dd_56:6808)">
<path d="M24.8028 87.6461L36.6877 134.488C37.0767 136.021 38.6351 136.949 40.1684 136.56L97.2724 122.071C98.8058 121.682 99.7334 120.124 99.3443 118.59L87.4594 71.7486" stroke="#404366" stroke-width="1.74359"/>
</g>
<path d="M24.7915 87.5059L57.5757 103.796C60.7419 105.369 64.5827 104.386 66.6035 101.484L87.0395 72.1459" stroke="#404366" stroke-width="1.74359"/>
<path d="M43.0197 90.2519L41.3036 87.6398L41.0247 90.5238L39.3342 90.2767L40.7363 87.4686L38.0924 88.6131L37.4628 87.029L40.5524 86.8264L38.0543 85.0387L39.5359 83.9895L41.05 86.3815L41.4475 83.2664L42.9926 84.0206L41.652 86.5847L44.5251 85.3303L44.6334 87.0418L41.8297 87.2014L44.1321 88.7945L43.0197 90.2519Z" fill="#EB2929"/>
<path d="M53.9454 87.582L52.2294 84.9699L51.9505 87.8539L50.2599 87.6068L51.6621 84.7987L49.0181 85.9432L48.3886 84.359L51.4782 84.1565L48.9801 82.3687L50.4617 81.3196L51.9758 83.7116L52.3733 80.5965L53.9183 81.3507L52.5778 83.9147L55.4509 82.6603L55.5592 84.3719L52.7555 84.5315L55.0579 86.1246L53.9454 87.582Z" fill="#EB2929"/>
<path d="M64.8707 84.9126L63.1547 82.3005L62.8758 85.1844L61.1852 84.9374L62.5874 82.1292L59.9434 83.2738L59.3139 81.6896L62.4035 81.487L59.9054 79.6993L61.387 78.6502L62.9011 81.0421L63.2986 77.9271L64.8436 78.6813L63.5031 81.2453L66.3762 79.9909L66.4845 81.7024L63.6808 81.8621L65.9832 83.4551L64.8707 84.9126Z" fill="#EB2929"/>
<path d="M75.7946 82.2329L74.0785 79.6208L73.7997 82.5048L72.1091 82.2577L73.5112 79.4495L70.8673 80.5941L70.2377 79.0099L73.3273 78.8074L70.8292 77.0196L72.3108 75.9705L73.8249 78.3624L74.2224 75.2474L75.7675 76.0016L74.4269 78.5656L77.3 77.3112L77.4083 79.0227L74.6046 79.1824L76.907 80.7755L75.7946 82.2329Z" fill="#EB2929"/>
<path d="M24.3892 88.314L46.6047 59.4246C48.6154 56.8097 52.1629 55.9253 55.1658 57.2902L87.8499 72.1455" stroke="#404366" stroke-width="1.74359"/>
<path d="M64.9481 108.586C64.9121 108.639 64.8759 108.693 64.8396 108.747L64.1883 109.699L63.1628 109.172C63.1052 109.141 63.0478 109.111 62.9906 109.081C60.6199 107.836 58.6909 106.823 57.2541 105.777C55.7891 104.712 54.8961 103.654 54.5667 102.352C54.0318 100.239 55.2734 98.1801 57.4392 97.632C58.6641 97.3221 59.961 97.581 60.9582 98.2816L61.3728 98.573L61.5989 98.1195C62.1427 97.0289 63.1603 96.1842 64.3853 95.8742C66.5511 95.3261 68.6224 96.5463 69.1573 98.6601C69.4867 99.9616 69.2042 101.317 68.4225 102.951C67.6559 104.554 66.4411 106.363 64.9481 108.586Z" fill="#EC1F28" stroke="#404366" stroke-width="0.871795"/>
<rect x="39.5083" y="129.67" width="30.9123" height="1.18894" rx="0.594468" transform="rotate(-14.2014 39.5083 129.67)" fill="#404366"/>
<rect x="38.3418" y="125.06" width="20.8064" height="1.18894" rx="0.594468" transform="rotate(-14.2014 38.3418 125.06)" fill="#404366"/>
<defs>
<filter id="filter0_dd_56:6808" x="66.4392" y="0.542233" width="169.182" height="212.054" filterUnits="userSpaceOnUse" color-interpolation-filters="sRGB">
<feFlood flood-opacity="0" result="BackgroundImageFix"/>
<feColorMatrix in="SourceAlpha" type="matrix" values="0 0 0 0 0 0 0 0 0 0 0 0 0 0 0 0 0 0 127 0" result="hardAlpha"/>
<feOffset dx="19.1795" dy="-0.871795"/>
<feGaussianBlur stdDeviation="27.0257"/>
<feColorMatrix type="matrix" values="0 0 0 0 0 0 0 0 0 0 0 0 0 0 0 0 0 0 0.07 0"/>
<feBlend mode="normal" in2="BackgroundImageFix" result="effect1_dropShadow_56:6808"/>
<feColorMatrix in="SourceAlpha" type="matrix" values="0 0 0 0 0 0 0 0 0 0 0 0 0 0 0 0 0 0 127 0" result="hardAlpha"/>
<feOffset dx="-5.23077" dy="3.48718"/>
<feGaussianBlur stdDeviation="6.53846"/>
<feColorMatrix type="matrix" values="0 0 0 0 0 0 0 0 0 0 0 0 0 0 0 0 0 0 0.02 0"/>
<feBlend mode="normal" in2="effect1_dropShadow_56:6808" result="effect2_dropShadow_56:6808"/>
<feBlend mode="normal" in="SourceGraphic" in2="effect2_dropShadow_56:6808" result="shape"/>
</filter>
<filter id="filter1_dd_56:6808" x="0.178816" y="34.0827" width="150.062" height="139.7" filterUnits="userSpaceOnUse" color-interpolation-filters="sRGB">
<feFlood flood-opacity="0" result="BackgroundImageFix"/>
<feColorMatrix in="SourceAlpha" type="matrix" values="0 0 0 0 0 0 0 0 0 0 0 0 0 0 0 0 0 0 127 0" result="hardAlpha"/>
<feOffset dx="13.0783" dy="-0.594468"/>
<feGaussianBlur stdDeviation="18.4285"/>
<feColorMatrix type="matrix" values="0 0 0 0 0 0 0 0 0 0 0 0 0 0 0 0 0 0 0.07 0"/>
<feBlend mode="normal" in2="BackgroundImageFix" result="effect1_dropShadow_56:6808"/>
<feColorMatrix in="SourceAlpha" type="matrix" values="0 0 0 0 0 0 0 0 0 0 0 0 0 0 0 0 0 0 127 0" result="hardAlpha"/>
<feOffset dx="-3.56681" dy="2.37787"/>
<feGaussianBlur stdDeviation="4.45851"/>
<feColorMatrix type="matrix" values="0 0 0 0 0 0 0 0 0 0 0 0 0 0 0 0 0 0 0.02 0"/>
<feBlend mode="normal" in2="effect1_dropShadow_56:6808" result="effect2_dropShadow_56:6808"/>
<feBlend mode="normal" in="SourceGraphic" in2="effect2_dropShadow_56:6808" result="shape"/>
</filter>
</defs>
</svg>
