<svg width="146" height="213" viewBox="0 0 146 213" fill="none" xmlns="http://www.w3.org/2000/svg">
<g filter="url(#filter0_dd_56:6882)">
<rect x="35" y="55.5815" width="79.0586" height="104.024" rx="5.20767" fill="white"/>
<rect x="35.8679" y="56.4495" width="77.3227" height="102.289" rx="4.33973" stroke="#404366" stroke-width="1.73589"/>
</g>
<circle cx="47.4838" cy="61.4833" r="2.08049" fill="#404366"/>
<circle cx="64.1283" cy="61.4833" r="2.08049" fill="#404366"/>
<circle cx="82.851" cy="61.4833" r="2.08049" fill="#404366"/>
<circle cx="101.577" cy="61.4833" r="2.08049" fill="#404366"/>
<path d="M47.2104 61.5832C47.2759 60.7085 47.6553 60.1399 48.0764 59.7299C48.6533 59.1705 49.266 57.893 49.266 56.3094C49.266 54.2975 48.4678 52.4916 47.4817 52.4916C46.4955 52.4916 45.6974 54.1408 45.6974 55.9631H43.3231C43.3469 52.3185 45.1966 49 47.4817 49C49.7822 49 51.645 52.3148 51.645 56.2985C51.645 59.6752 50.402 62.4415 48.5891 63.4529C47.6863 63.9559 47.1343 62.6384 47.2104 61.5832Z" fill="#404366"/>
<path d="M63.8545 61.5832C63.9199 60.7085 64.2994 60.1399 64.7205 59.7299C65.2974 59.1705 65.91 57.893 65.91 56.3094C65.91 54.2975 65.1118 52.4916 64.1257 52.4916C63.1396 52.4916 62.3414 54.1408 62.3414 55.9631H59.9671C59.9909 52.3185 61.8406 49 64.1257 49C66.4263 49 68.2891 52.3148 68.2891 56.2985C68.2891 59.6752 67.046 62.4415 65.2332 63.4529C64.3303 63.9559 63.7784 62.6384 63.8545 61.5832Z" fill="#404366"/>
<path d="M82.5776 61.5832C82.6431 60.7085 83.0225 60.1399 83.4436 59.7299C84.0205 59.1705 84.6331 57.893 84.6331 56.3094C84.6331 54.2975 83.835 52.4916 82.8488 52.4916C81.8627 52.4916 81.0646 54.1408 81.0646 55.9631H78.6902C78.714 52.3185 80.5638 49 82.8488 49C85.1494 49 87.0122 52.3148 87.0122 56.2985C87.0122 59.6752 85.7691 62.4415 83.9563 63.4529C83.0534 63.9559 82.5015 62.6384 82.5776 61.5832Z" fill="#404366"/>
<path d="M101.304 61.5832C101.369 60.7085 101.749 60.1399 102.17 59.7299C102.747 59.1705 103.359 57.893 103.359 56.3094C103.359 54.2975 102.561 52.4916 101.575 52.4916C100.589 52.4916 99.7906 54.1408 99.7906 55.9631H97.4163C97.4401 52.3185 99.2898 49 101.575 49C103.875 49 105.738 52.3148 105.738 56.2985C105.738 59.6752 104.495 62.4415 102.682 63.4529C101.78 63.9559 101.228 62.6384 101.304 61.5832Z" fill="#404366"/>
<path d="M86.8737 111.615L87.0135 111.072C87.2098 110.311 87.5286 109.591 87.8843 108.884C88.0549 108.545 88.2363 108.205 88.418 107.864L88.4413 107.821C88.6316 107.464 88.8223 107.105 89.0068 106.736C89.7424 105.267 90.3674 103.662 90.3674 101.612C90.3674 97.9985 89.1928 96.0826 87.8096 95.0515C86.4023 94.0025 84.6935 93.8036 83.515 93.8036C83.1602 93.8036 82.8246 93.9724 82.4945 94.3193C82.1606 94.6703 81.8614 95.1754 81.5974 95.7684C81.0744 96.9428 80.7362 98.3498 80.5095 99.2932L80.5031 99.3197L80.5031 99.3198L80.4878 99.3836C79.9727 101.528 79.4036 103.898 77.8186 105.486L77.8185 105.486C76.2984 107.008 75.1174 108.73 73.8538 110.572C73.7799 110.68 73.7056 110.788 73.631 110.897C72.2872 112.854 70.8342 114.922 68.7979 116.935M86.8737 111.615L68.4928 116.626M86.8737 111.615H87.4338M86.8737 111.615H87.4338M68.7979 116.935L68.4928 116.626M68.7979 116.935C68.7979 116.935 68.7979 116.935 68.7979 116.935L68.4928 116.626M68.7979 116.935C68.6501 117.081 68.5667 117.28 68.5667 117.488V139.122C68.5667 139.547 68.9077 139.894 69.3332 139.902C70.201 139.918 71.1794 140.164 72.1241 140.485C73.074 140.808 74.0209 141.217 74.8298 141.576C78.0476 143.008 81.9693 144.748 86.753 144.75L87.0407 144.75V145.184L86.7528 145.183C81.8662 145.182 77.8669 143.403 74.6534 141.973C73.0386 141.255 70.9272 140.365 69.3252 140.336C68.6634 140.324 68.1328 139.783 68.1328 139.122V117.488C68.1328 117.164 68.2625 116.854 68.4928 116.626M87.4338 111.615H97.7281M87.4338 111.615H97.7281M97.7281 111.615C100.866 111.615 103.306 114.226 103.321 117.062M97.7281 111.615L103.321 117.062M103.321 117.062C103.329 118.77 102.597 120.61 101.481 121.732L103.321 117.062ZM93.5681 144.365C91.5345 144.738 89.2124 144.75 87.0409 144.75L101.48 121.733L101.47 121.743L101.263 121.95L101.377 122.219C102.319 124.454 102.16 127.597 100.487 129.832L100.351 130.014L100.423 130.23C101.248 132.69 100.408 135.742 98.863 137.358L98.6986 137.529L98.755 137.76C99.168 139.451 98.9601 140.832 98.1983 141.926C97.264 143.269 95.6084 143.991 93.5681 144.365ZM54.3697 116.472H62.4656C63.5673 116.472 64.4604 117.365 64.4604 118.467V142.755C64.4604 143.857 63.5673 144.75 62.4656 144.75H54.3697C53.268 144.75 52.3749 143.857 52.3749 142.755V118.467C52.3749 117.365 53.268 116.472 54.3697 116.472ZM55.5549 138.707C55.5549 140.288 56.8366 141.57 58.4177 141.57C59.9987 141.57 61.2804 140.288 61.2804 138.707C61.2804 137.126 59.9987 135.844 58.4177 135.844C56.8366 135.844 55.5549 137.126 55.5549 138.707Z" fill="#EB2929" stroke="black" stroke-width="0.867945"/>
<path d="M56.0841 86.7927L54.5775 82.5552L53.2026 86.4914L50.9238 85.5685L53.843 82.122L49.7561 82.8189L49.4171 80.3893L53.8053 81.1615L50.9238 77.8092L53.3533 76.8487L54.6528 80.7095L56.2725 76.4908L58.1747 78.0728L55.425 81.1992L59.8697 80.427L59.4365 82.8565L55.4626 82.122L58.137 85.1354L56.0841 86.7927Z" fill="#404366"/>
<path d="M71.1276 86.7917L69.6209 82.5542L68.2461 86.4904L65.9672 85.5676L68.8864 82.121L64.7996 82.8179L64.4606 80.3884L68.8487 81.1605L65.9672 77.8082L68.3967 76.8477L69.6963 80.7085L71.3159 76.4898L73.2181 78.0719L70.4684 81.1982L74.9131 80.426L74.4799 82.8555L70.5061 82.121L73.1804 85.1344L71.1276 86.7917Z" fill="#404366"/>
<path d="M86.1711 86.7917L84.6644 82.5542L83.2895 86.4904L81.0107 85.5676L83.9299 82.121L79.843 82.8179L79.504 80.3884L83.8922 81.1605L81.0107 77.8082L83.4402 76.8477L84.7397 80.7085L86.3594 76.4898L88.2616 78.0719L85.5119 81.1982L89.9566 80.426L89.5234 82.8555L85.5495 82.121L88.2239 85.1344L86.1711 86.7917Z" fill="#404366"/>
<path d="M101.214 86.7781L99.7073 82.5405L98.3325 86.4767L96.0537 85.5539L98.9728 82.1074L94.886 82.8042L94.547 80.3747L98.9352 81.1469L96.0537 77.7945L98.4832 76.834L99.7827 80.6949L101.402 76.4762L103.305 78.0582L100.555 81.1845L105 80.4124L104.566 82.8419L100.593 82.1074L103.267 85.1207L101.214 86.7781Z" fill="#404366"/>
<defs>
<filter id="filter0_dd_56:6882" x="0.282196" y="0.901003" width="186.684" height="211.65" filterUnits="userSpaceOnUse" color-interpolation-filters="sRGB">
<feFlood flood-opacity="0" result="BackgroundImageFix"/>
<feColorMatrix in="SourceAlpha" type="matrix" values="0 0 0 0 0 0 0 0 0 0 0 0 0 0 0 0 0 0 127 0" result="hardAlpha"/>
<feOffset dx="19.0948" dy="-0.867945"/>
<feGaussianBlur stdDeviation="26.9063"/>
<feColorMatrix type="matrix" values="0 0 0 0 0 0 0 0 0 0 0 0 0 0 0 0 0 0 0.07 0"/>
<feBlend mode="normal" in2="BackgroundImageFix" result="effect1_dropShadow_56:6882"/>
<feColorMatrix in="SourceAlpha" type="matrix" values="0 0 0 0 0 0 0 0 0 0 0 0 0 0 0 0 0 0 127 0" result="hardAlpha"/>
<feOffset dx="-5.20767" dy="3.47178"/>
<feGaussianBlur stdDeviation="6.50959"/>
<feColorMatrix type="matrix" values="0 0 0 0 0 0 0 0 0 0 0 0 0 0 0 0 0 0 0.02 0"/>
<feBlend mode="normal" in2="effect1_dropShadow_56:6882" result="effect2_dropShadow_56:6882"/>
<feBlend mode="normal" in="SourceGraphic" in2="effect2_dropShadow_56:6882" result="shape"/>
</filter>
</defs>
</svg>
